<svg width="1440" height="720" viewBox="0 0 1440 720" fill="none" xmlns="http://www.w3.org/2000/svg">
<g clip-path="url(#clip0_593_643)">
<rect width="1440" height="720" fill="#FCFBF9"/>
<path d="M143.932 490.766C143.618 492.943 143.514 495.154 143.705 497.345C144.303 504.185 147.286 508.145 157.847 506.984C170.776 505.563 167.945 493.046 166.306 488.121C166.017 487.251 164.865 487.069 164.312 487.801L162.526 490.167C161.715 491.241 160.445 491.87 159.099 491.863L151.768 491.826C150.433 491.819 149.708 491.038 148.713 489.963L146.38 487.458C145.77 486.644 144.48 486.974 144.335 487.98L143.932 490.766Z" fill="#252D3B"/>
<path d="M150.959 498.807C150.959 498.807 140.779 506.159 147 516.48L191.69 516.793C195.181 516.793 197.276 511.727 195.198 506.79C192.559 500.522 187.987 497.875 182.077 496.917C167.657 494.579 162.835 501.493 161.422 496.544C160.008 491.596 150.959 498.807 150.959 498.807Z" fill="#252D3B"/>
<path d="M151.402 508.208C151.402 508.208 151.61 512.261 155.663 512.885C159.716 513.509 160.756 516.834 160.756 516.834" stroke="white" stroke-width="0.5" stroke-miterlimit="10" stroke-linecap="round"/>
<path d="M188.835 508.011C188.835 513.051 170.103 504.866 169.67 517.024" stroke="white" stroke-width="0.5" stroke-miterlimit="10" stroke-linecap="round"/>
<path d="M163.667 507.94C163.667 507.94 165.879 511.114 164.437 513.519C162.994 515.924 163.764 516.886 163.764 516.886" stroke="white" stroke-width="0.5" stroke-miterlimit="10" stroke-linecap="round"/>
<path d="M161.975 498.774C161.975 498.774 161.768 497.067 160.378 497.105C158.987 497.143 158.711 498.809 158.711 498.809" stroke="white" stroke-width="0.5" stroke-miterlimit="10" stroke-linecap="round"/>
<path d="M150.335 498.673C150.335 498.673 150.128 496.966 148.738 497.004C147.348 497.042 147.071 498.708 147.071 498.708" stroke="white" stroke-width="0.5" stroke-miterlimit="10" stroke-linecap="round"/>
<path d="M146.47 493.744C146.244 493.825 146.002 493.679 145.967 493.442C145.802 492.336 145.47 489.658 146.25 490.424C146.931 491.093 147.875 491.946 148.437 492.447C148.652 492.639 148.581 492.988 148.31 493.085L146.47 493.744Z" fill="white"/>
<path d="M164.405 494.301C164.631 494.382 164.873 494.236 164.909 493.998C165.074 492.891 165.406 490.214 164.626 490.98C163.945 491.649 163.001 492.502 162.439 493.003C162.224 493.195 162.295 493.544 162.566 493.641L164.405 494.301Z" fill="white"/>
<path d="M153.888 500.962L152.161 499.952C152.161 499.952 153.468 498.61 155.569 499.746L153.888 500.962Z" fill="white"/>
<path d="M0 645L1435 645" stroke="#252D3B" stroke-width="0.5" stroke-miterlimit="10" stroke-linecap="round"/>
<g opacity="0.4" filter="url(#filter0_f_593_643)">
<path d="M542.573 490.748C542.573 568.502 479.541 631.534 401.787 631.534C324.032 631.534 261 568.502 261 490.748C261 412.993 324.032 349.961 401.787 349.961C479.541 349.961 542.573 412.993 542.573 490.748Z" fill="#FB8C00"/>
</g>
<g opacity="0.4" filter="url(#filter1_f_593_643)">
<circle cx="1062.39" cy="349.596" r="125.612" fill="#FFCA29"/>
</g>
<path d="M1206.2 111.995C1206.2 115.731 1209.23 118.76 1212.96 118.76C1216.7 118.76 1219.73 115.731 1219.73 111.995C1219.73 108.259 1216.7 105.23 1212.96 105.23C1209.23 105.231 1206.2 108.259 1206.2 111.995Z" fill="white" stroke="#252D3B" stroke-width="0.5" stroke-miterlimit="10" stroke-linecap="round"/>
<path d="M1213 105L1213 -119" stroke="#252D3B" stroke-width="0.5" stroke-miterlimit="10" stroke-linecap="round"/>
<path d="M1216.3 65.751H1210.02C1208.3 65.751 1206.91 67.143 1206.91 68.86V97.506C1206.91 99.223 1208.3 100.615 1210.02 100.615H1216.3C1218.01 100.615 1219.41 99.223 1219.41 97.506V68.861C1219.41 67.143 1218.01 65.751 1216.3 65.751Z" fill="white" stroke="#252D3B" stroke-width="0.5" stroke-miterlimit="10" stroke-linecap="round"/>
<path d="M1288.39 112.019H1140C1144.86 105.159 1176.22 96.0898 1214.18 96.0898C1252.15 96.0898 1283.52 105.159 1288.39 112.019Z" fill="#252D3B"/>
<path d="M1300.33 333.05H1289.06V387.507H1300.33V333.05Z" fill="#FEDBB0"/>
<path d="M1356.12 333.05H1344.85V387.507H1356.12V333.05Z" fill="#FEDBB0"/>
<path d="M1321.01 347.528L1312.79 349.438L1321.72 387.86L1329.94 385.95L1321.01 347.528Z" fill="#FEDBB0"/>
<path d="M1344.97 348.7L1339.39 347.933L1334.02 387.014L1339.6 387.781L1344.97 348.7Z" fill="white" stroke="#252D3B" stroke-width="0.639926" stroke-miterlimit="10" stroke-linecap="round"/>
<path d="M1308.88 333L1300.67 334.91L1313 387.951L1321.21 386.042L1308.88 333Z" fill="white" stroke="#252D3B" stroke-width="0.639926" stroke-miterlimit="10" stroke-linecap="round"/>
<path d="M1359.97 387.943H1280" stroke="#252D3B" stroke-width="0.639926" stroke-miterlimit="10" stroke-linecap="round"/>
<path d="M175.007 297.797H121V196H314.71V248.654" fill="white"/>
<path d="M175.007 297.797H121V196H314.71V248.654V297.797H175.007Z" stroke="#252D3B" stroke-width="0.5" stroke-miterlimit="10" stroke-linecap="round"/>
<mask id="mask0_593_643" style="mask-type:luminance" maskUnits="userSpaceOnUse" x="127" y="218" width="188" height="80">
<path d="M314.71 218.812H127.347V297.464H314.71V218.812Z" fill="white"/>
</mask>
<g mask="url(#mask0_593_643)">
<path d="M305.212 239.026H284.163V298.126H305.212V239.026Z" fill="#FEDBB0"/>
<path d="M271.299 249.664H253.759V298.126H271.299V249.664Z" fill="#FEDBB0"/>
<path d="M297.415 259.906H277.146V298.124H297.415V259.906Z" fill="#FEDBB0"/>
<path d="M258.044 261.878H243.232V298.126H258.044V261.878Z" fill="#FEDBB0"/>
<path d="M290.399 276.455H211.66V298.126H290.399V276.455Z" fill="#FEDBB0"/>
<path d="M218.288 285.518H199.577V298.126H218.288V285.518Z" fill="#FEDBB0"/>
<path d="M236.33 273.818H220.839V278.739H236.33V273.818Z" fill="#FEDBB0"/>
<path d="M268.196 243.62H256.688V253.014H268.196V243.62Z" fill="#FEDBB0"/>
<path d="M298.914 223.007H284.558V247.648H298.914V223.007Z" fill="#FEDBB0"/>
<path d="M263.768 229.557H260.994V245.258H263.768V229.557Z" fill="#FEDBB0"/>
<path d="M314.461 250.291H300.003V298.518H314.461V250.291Z" fill="#FEDBB0"/>
<path d="M202.327 294.605H175.207V298.222H202.327V294.605Z" fill="#FEDBB0"/>
<path d="M194.794 290.225H188.956V296.888H194.794V290.225Z" fill="#FEDBB0"/>
</g>
<path d="M254.402 262.053V270.755" stroke="#252D3B" stroke-width="0.5" stroke-miterlimit="10" stroke-linecap="round"/>
<path d="M299.34 238.059V250.297" stroke="#252D3B" stroke-width="0.5" stroke-miterlimit="10" stroke-linecap="round"/>
<path d="M220.649 275.768V285.522" stroke="#252D3B" stroke-width="0.5" stroke-miterlimit="10" stroke-linecap="round"/>
<path d="M164.002 245.166C167.215 245.166 169.82 242.561 169.82 239.348C169.82 236.134 167.215 233.529 164.002 233.529C160.788 233.529 158.183 236.134 158.183 239.348C158.183 242.561 160.788 245.166 164.002 245.166Z" fill="#FEDBB0"/>
<path d="M1034.32 249.074H1023.06V303.514H1034.32V249.074Z" fill="#FEDBB0"/>
<path d="M1055 263.524L1046.79 265.433L1055.72 303.842L1063.93 301.933L1055 263.524Z" fill="#FEDBB0"/>
<path d="M1063.87 263.524L1055.66 265.433L1064.59 303.842L1072.8 301.933L1063.87 263.524Z" fill="white" stroke="#252D3B" stroke-width="0.639712" stroke-miterlimit="10" stroke-linecap="round"/>
<path d="M1042.88 249L1034.67 250.909L1047 303.933L1055.21 302.024L1042.88 249Z" fill="white" stroke="#252D3B" stroke-width="0.639712" stroke-miterlimit="10" stroke-linecap="round"/>
<path d="M1093.94 303.95H1014" stroke="#252D3B" stroke-width="0.639712" stroke-miterlimit="10" stroke-linecap="round"/>
<path d="M326.267 409.479C329.845 416.388 329.44 420.663 323.133 426.138C316.827 431.612 324.055 437.27 330.479 438.426" stroke="#FB8C00" stroke-width="0.57042" stroke-miterlimit="10"/>
<path d="M347.492 446.515C337.608 448.408 327.632 442.645 324.7 433.018C324.185 431.324 323.945 429.725 324.224 428.474C325.712 421.797 332.047 421.841 328.582 415.218C324.55 407.51 323.188 401.359 329.372 396.041C331.765 393.984 331.568 390.755 336.175 388.24C337.274 387.641 338.332 387.739 338.887 387.273C346.505 380.856 354.402 389.753 355.674 392.793C356.184 394.013 357.323 394.767 358.588 394.855C359.774 394.937 362.279 394.835 365.325 396.485C368.551 398.233 371.345 401.741 371.889 404.584C372.133 405.857 372.926 406.94 374.066 407.557C375.9 408.551 388.727 415.909 386.875 427.015C385.33 436.282 384.163 440.772 384.163 440.772C384.163 440.772 360.871 443.953 347.492 446.515Z" fill="#FB8C00"/>
<path d="M355.186 419.496C355.186 419.496 373.929 417.587 385.645 428.715C397.36 439.844 399.133 504.617 406.455 510.767C413.777 516.917 423.006 515.5 418.755 516.917C417.877 517.21 303.071 516.332 303.071 516.332C303.071 516.332 324.013 481.37 318.593 460.686C312.258 436.51 320.203 430.551 342.618 422.577" fill="white"/>
<path d="M355.186 419.496C355.186 419.496 373.929 417.587 385.645 428.715C397.36 439.844 399.133 504.617 406.455 510.767C413.777 516.917 423.006 515.5 418.755 516.917C417.877 517.21 303.071 516.332 303.071 516.332C303.071 516.332 324.013 481.37 318.593 460.686C312.258 436.51 320.203 430.551 342.618 422.577" stroke="#252D3B" stroke-width="0.57042" stroke-miterlimit="10" stroke-linecap="round"/>
<path d="M414.518 627.844C414.518 627.844 417.698 634.196 424.349 637.285C430.999 640.372 432.263 644.975 432.739 645.687C432.739 645.687 418.179 648.114 396.562 646.071C383.312 644.82 377.799 644.884 377.799 644.884L372.336 628.258C372.336 628.258 399.462 630.756 414.518 627.844Z" fill="#252D3B"/>
<path d="M348.08 634.222L351.146 648.344C351.146 648.344 344.808 649.901 338.768 650.152C330.27 650.504 320.118 649.372 309.471 647.289L315.807 633.826L348.08 634.222Z" fill="#252D3B"/>
<path d="M384.488 485.335C384.488 485.335 382.926 513.445 392.817 545.72C402.708 577.995 414.681 627.969 414.681 627.969C414.681 627.969 386.114 642.294 360.085 607.416C358.215 604.911 365.382 630.797 361.711 632.772C349.283 639.454 316.851 635.698 316.851 635.698C316.851 635.698 315.189 503.501 324.103 479.61L384.488 485.335Z" fill="#FEDBB0"/>
<path d="M337.318 399.204C336.241 402.154 330.879 401.07 331.789 404.569C332.375 406.827 332.378 405.605 332.924 409.146C334.092 416.722 340.57 419.594 346.254 414.965C352.034 410.259 352.339 408.568 348.681 400.554C347.338 397.611 345.786 397.214 344.568 397.552C343.288 397.907 341.933 397.712 340.905 396.871C339.882 396.032 338.516 395.923 337.318 399.204Z" fill="white"/>
<path d="M334.315 408.714C334.543 409.256 334.946 409.604 335.214 409.491C335.482 409.378 335.515 408.848 335.287 408.306C335.059 407.764 334.656 407.416 334.388 407.529C334.12 407.642 334.087 408.173 334.315 408.714Z" fill="#252D3B"/>
<path d="M341.569 406.658C341.658 407.232 341.971 407.684 342.266 407.668C342.563 407.652 342.73 407.173 342.641 406.599C342.552 406.025 342.24 405.573 341.944 405.589C341.648 405.606 341.48 406.084 341.569 406.658Z" fill="#252D3B"/>
<path d="M341.469 417.184C341.469 417.184 343.449 420.197 342.623 423.819C342.623 423.819 350.522 428.57 355.188 419.492C355.188 419.492 351.41 411.103 350.641 406.229C350.641 406.229 341.952 416.304 341.469 417.184Z" fill="white"/>
<path d="M341.469 417.187C341.469 417.187 344.76 416.536 347.379 413.481C349.999 410.426 348.054 418.746 342.619 420.725C342.619 420.725 342.62 419.361 341.469 417.187Z" fill="#252D3B"/>
<path d="M334.637 404.594C334.637 404.594 333.134 405.1 332.249 406.171C331.365 407.242 332.594 402.912 334.637 404.594Z" fill="#252D3B"/>
<path d="M341.344 402.372C341.344 402.372 344.03 402.373 345.056 402.563C346.001 402.738 342.785 399.603 341.344 402.372Z" fill="#252D3B"/>
<path d="M348.614 403.663C348.614 403.663 349.563 401.037 351.534 400.636C353.506 400.234 354.42 406.27 350.179 406.771C345.937 407.272 348.614 403.663 348.614 403.663Z" fill="white"/>
<path d="M350.361 406.974C350.728 407.844 351.73 408.253 352.602 407.887C353.472 407.52 353.881 406.518 353.515 405.647C353.148 404.777 352.146 404.367 351.274 404.734C350.404 405.099 349.994 406.102 350.361 406.974Z" fill="#252D3B"/>
<path d="M350.243 403.869C350.243 403.869 350.199 402.273 351.597 401.864" stroke="#252D3B" stroke-width="0.57042" stroke-miterlimit="10" stroke-linecap="round"/>
<path d="M335.764 412.697C337.762 412.697 339.381 411.078 339.381 409.081C339.381 407.083 337.762 405.464 335.764 405.464C333.767 405.464 332.148 407.083 332.148 409.081C332.148 411.078 333.767 412.697 335.764 412.697Z" stroke="#252D3B" stroke-width="0.57042" stroke-miterlimit="10" stroke-linecap="round"/>
<path d="M340.145 406.993C340.145 408.989 341.764 410.609 343.762 410.609C345.759 410.609 347.378 408.991 347.378 406.993C347.378 404.995 345.759 403.376 343.762 403.376C341.764 403.376 340.145 404.995 340.145 406.993Z" stroke="#252D3B" stroke-width="0.57042" stroke-miterlimit="10" stroke-linecap="round"/>
<path d="M361.262 568.711C361.262 568.711 357.274 547.454 355.706 526.424" stroke="#252D3B" stroke-width="0.57042" stroke-miterlimit="10" stroke-linecap="round"/>
<path d="M400.532 513.012C400.532 513.012 403.524 515.722 407.169 516.377L400.532 513.012Z" fill="white"/>
<path d="M400.532 513.012C400.532 513.012 403.524 515.722 407.169 516.377" stroke="#252D3B" stroke-width="0.57042" stroke-miterlimit="10" stroke-linecap="round"/>
<path d="M385.696 508.635C385.696 508.635 388.081 514.855 393.472 516.515L385.696 508.635Z" fill="white"/>
<path d="M385.696 508.635C385.696 508.635 388.081 514.855 393.472 516.515" stroke="#252D3B" stroke-width="0.57042" stroke-miterlimit="10" stroke-linecap="round"/>
<path d="M359.241 419.705C359.241 419.705 356.958 427.883 347.409 430.228C338.247 432.479 339.6 423.703 339.6 423.703" fill="white"/>
<path d="M359.241 419.705C359.241 419.705 356.958 427.883 347.409 430.228C338.247 432.479 339.6 423.703 339.6 423.703" stroke="#252D3B" stroke-width="0.57042" stroke-miterlimit="10" stroke-linecap="round"/>
<path d="M343.834 412.038C343.834 412.038 343.948 413.559 342.237 413.977L343.834 412.038Z" fill="white"/>
<path d="M343.834 412.038C343.834 412.038 343.948 413.559 342.237 413.977" stroke="#252D3B" stroke-width="0.57042" stroke-miterlimit="10" stroke-linecap="round"/>
<path d="M346.843 404.96C346.843 404.96 349.011 400.435 351.978 400.472L346.843 404.96Z" fill="white"/>
<path d="M346.843 404.96C346.843 404.96 349.011 400.435 351.978 400.472" stroke="#252D3B" stroke-width="0.57042" stroke-miterlimit="10" stroke-linecap="round"/>
<path d="M339.196 407.586L340.185 407.283" stroke="#252D3B" stroke-width="0.57042" stroke-miterlimit="10" stroke-linecap="round"/>
<path d="M338.621 395.472C338.621 395.472 342.14 401.436 348.594 397.134" stroke="#FB8C00" stroke-width="0.57042" stroke-miterlimit="10"/>
<path d="M394.729 554.351C394.729 554.351 370.935 578.834 404.729 587.11" stroke="#252D3B" stroke-width="0.57042" stroke-miterlimit="10" stroke-linecap="round"/>
<path d="M332.238 392.169C332.238 392.169 332.238 394.707 325.349 397.789C318.459 400.87 319.366 410.479 323.536 410.842" stroke="#FB8C00" stroke-width="0.57042" stroke-miterlimit="10"/>
<path d="M382.514 501.112H404.179C404.967 501.112 405.55 500.377 405.371 499.609L404.553 496.101C404.424 495.547 403.93 495.154 403.361 495.154L382.514 495.15V501.112Z" fill="#252D3B"/>
<path d="M287.398 636.293C287.398 636.293 286.85 640.473 285.677 646.018C284.072 653.608 283.926 657.548 283.926 657.548C283.926 657.548 321.27 664.133 345.399 659.106C345.399 659.106 344.236 653.596 332.092 649.386C327.161 647.677 327.839 640.31 327.839 640.31" fill="white"/>
<path d="M287.398 636.293C287.398 636.293 286.85 640.473 285.677 646.018C284.072 653.608 283.926 657.548 283.926 657.548C283.926 657.548 321.27 664.133 345.399 659.106C345.399 659.106 344.236 653.596 332.092 649.386C327.161 647.677 327.839 640.31 327.839 640.31" stroke="#252D3B" stroke-width="0.57042" stroke-miterlimit="10" stroke-linecap="round"/>
<path d="M284.167 654.979C284.167 654.979 317.41 661.294 344.065 657.002" stroke="#252D3B" stroke-width="0.57042" stroke-miterlimit="10" stroke-linecap="round"/>
<path d="M285.68 646.018L284.147 655.063L296.983 656.922C296.983 656.922 293.528 645.489 285.68 646.018Z" fill="#252D3B"/>
<path d="M398.377 633.992C398.377 633.992 403.289 641.044 410.428 643.997C418.698 647.42 418.128 652.267 418.128 652.267C418.128 652.267 385.78 656.409 361.564 651.047C361.564 651.047 358.942 644.145 354.169 635.578" fill="white"/>
<path d="M398.377 633.992C398.377 633.992 403.289 641.044 410.428 643.997C418.698 647.42 418.128 652.267 418.128 652.267C418.128 652.267 385.78 656.409 361.564 651.047C361.564 651.047 358.942 644.145 354.169 635.578" stroke="#252D3B" stroke-width="0.57042" stroke-miterlimit="10" stroke-linecap="round"/>
<path d="M328.915 533.034H289.346L284.368 590.055L354.338 592.195V558.459C354.339 544.417 342.956 533.034 328.915 533.034Z" fill="#252D3B"/>
<path d="M280.264 464.457H221.232C210.611 464.457 202 473.066 202 483.689V582.503C202 595.585 212.605 606.189 225.686 606.189H303.973C303.973 606.189 299.01 522.76 299.493 483.916C299.627 473.203 290.978 464.457 280.264 464.457Z" fill="#252D3B"/>
<path d="M286.086 461.876C273.984 454.529 264.762 459.348 257.67 458.582C237.821 456.442 222.391 457.187 212.612 487.591C210.994 492.621 207.583 504.495 208.296 508.868C212.215 532.911 241.137 520.124 241.137 520.124C241.137 520.124 225.528 562.43 310.021 532.001C310.021 532.001 301.638 519.881 297.229 502.622C293.429 487.745 299.075 469.761 286.086 461.876Z" fill="white" stroke="#252D3B" stroke-width="0.57042" stroke-miterlimit="10" stroke-linecap="round"/>
<path d="M277.887 482.447C277.887 482.447 281.211 488.012 279.69 494.092C278.17 500.173 274.529 510.989 275.678 517.321" stroke="white" stroke-width="0.57042" stroke-miterlimit="10" stroke-linecap="round"/>
<path d="M265.613 506.408C265.613 506.408 241.051 494.618 228.68 500.556L265.613 506.408Z" fill="white"/>
<path d="M265.613 506.408C265.613 506.408 241.051 494.618 228.68 500.556" stroke="#252D3B" stroke-width="0.57042" stroke-miterlimit="10" stroke-linecap="round"/>
<path d="M241.769 485.416C241.769 485.416 237.49 489.98 235.229 498.767L241.769 485.416Z" fill="white"/>
<path d="M241.769 485.416C241.769 485.416 237.49 489.98 235.229 498.767" stroke="#252D3B" stroke-width="0.57042" stroke-miterlimit="10" stroke-linecap="round"/>
<path d="M265.92 448.298C245.75 458.417 260.517 449.841 255.693 450.806C249.312 452.609 240.289 445.837 243.15 441.953C246.745 437.075 239.428 440.157 241.678 433.669C242.093 432.473 243.56 431.957 243.56 430.634C243.549 427.337 244.94 425.534 248.021 423.287C253.93 418.986 257.935 423.983 257.935 423.983C257.935 423.983 258.414 421.69 262.84 422.135C268.065 422.659 267.939 427.046 270.69 428.585C275.35 431.19 271.902 438.477 266.855 442.01C263.732 444.197 263.981 447.271 265.92 448.298Z" fill="#FB8C00"/>
<path d="M262.377 433.555C265.029 431.872 268.278 431.108 268.797 434.685C269.132 436.993 269.413 437.539 270.283 441.015C272.145 448.45 267.289 453.611 260.253 451.549C253.1 449.454 251.482 446.319 251.745 437.514C251.938 431.048 255.706 433.339 255.706 433.339C255.706 433.339 258.342 436.116 262.377 433.555Z" fill="white"/>
<path d="M267.76 438.077C267.76 438.665 267.524 439.141 267.232 439.141C266.941 439.141 266.704 438.665 266.704 438.077C266.704 437.49 266.94 437.013 267.232 437.013C267.524 437.013 267.76 437.49 267.76 438.077Z" fill="#252D3B"/>
<path d="M260.932 438.777C261.072 439.341 260.96 439.878 260.681 439.979C260.402 440.079 260.062 439.703 259.921 439.139C259.781 438.576 259.893 438.038 260.172 437.938C260.452 437.839 260.792 438.214 260.932 438.777Z" fill="#252D3B"/>
<path d="M265.533 451.737C265.533 451.737 264.877 455.282 267.043 458.302C267.043 458.302 268.794 464.138 267.02 470.21C266.49 472.023 264.245 472.663 262.8 471.447C259.728 468.86 255.071 464.25 253.783 459.188C253.783 459.188 254.011 449.991 252.829 445.199C252.829 445.199 264.746 451.113 265.533 451.737Z" fill="white"/>
<path d="M265.536 451.739C265.536 451.739 262.25 452.416 258.651 450.615C255.051 448.815 260.071 455.73 265.85 455.446C265.85 455.446 265.318 454.189 265.536 451.739Z" fill="#252D3B"/>
<path d="M265.626 434.916C265.626 434.916 267.208 434.799 268.438 435.443C269.669 436.088 266.857 432.573 265.626 434.916Z" fill="#252D3B"/>
<path d="M259.823 436.204C259.823 436.204 258.3 436.791 257.714 437.552C257.127 438.314 257.421 434.213 259.823 436.204Z" fill="#252D3B"/>
<path d="M253.699 442.046C253.699 442.046 251.805 439.995 249.833 440.39C247.86 440.785 249.359 446.702 253.462 445.518C257.565 444.334 253.699 442.046 253.699 442.046Z" fill="white"/>
<path d="M252.276 442.866C252.276 442.866 251.698 441.378 250.25 441.543" stroke="#252D3B" stroke-width="0.57042" stroke-miterlimit="10" stroke-linecap="round"/>
<path d="M251.81 440.413C251.81 440.413 255.809 438.347 255.809 431.387C255.809 424.427 245.593 432.146 251.81 440.413Z" fill="#FB8C00"/>
<path d="M252.905 445.807C252.905 445.807 254.413 453.124 253.594 459.069" stroke="#252D3B" stroke-width="0.57042" stroke-miterlimit="10" stroke-linecap="round"/>
<path d="M265.594 452.086C265.594 453.918 266.437 458.176 267.393 458.928" stroke="#252D3B" stroke-width="0.57042" stroke-miterlimit="10" stroke-linecap="round"/>
<path d="M226.509 655.851H221.724V599.13H233.684L226.509 655.851Z" fill="#252D3B"/>
<path d="M240.145 539.214C240.145 539.214 253.037 533.066 276.063 533.406C290.477 533.619 312.15 539.239 323.546 548.069C332.783 555.227 341.362 565.895 342.027 581.025C342.904 600.975 328.288 641.079 328.288 641.079C328.288 641.079 308.854 644.314 287.541 636.434C287.541 636.434 288.655 602.447 297.273 585.234C298.015 583.753 296.925 582.01 295.269 581.993C281.985 581.855 238.959 580.263 240.145 565.454C241.544 547.948 240.145 539.214 240.145 539.214Z" fill="#FB8C00"/>
<path d="M278.696 544.998C278.696 544.998 284.973 533.112 310.301 531.779C310.301 531.779 343.843 532.906 368.675 583.989C387.67 619.314 398.376 633.778 398.376 633.778C398.376 633.778 376.971 641.336 353.309 635.004C353.309 635.004 345.677 623.783 336.664 610.059C327.624 596.293 317.196 580.005 311.688 569.992C300.69 549.997 278.696 544.998 278.696 544.998Z" fill="#FB8C00"/>
<path d="M337.157 611.694C337.157 611.694 348.202 579.79 339.611 562.119C331.022 544.449 292.245 535.368 292.245 535.368" stroke="#252D3B" stroke-width="0.57042" stroke-miterlimit="10" stroke-linecap="round"/>
<path d="M264.27 557.674C264.27 557.674 281.842 571.628 312.105 571.716C314.737 571.724 316.57 574.335 315.697 576.819C311.679 588.256 302.341 616.311 298.748 639.668" stroke="#252D3B" stroke-width="0.57042" stroke-miterlimit="10" stroke-linecap="round"/>
<path d="M341.63 595.272C341.63 595.272 350.831 613.295 368.389 637.156" stroke="#252D3B" stroke-width="0.57042" stroke-miterlimit="10" stroke-linecap="round"/>
<path d="M269.959 439.209C271.161 446.758 269.989 451.869 264.495 452.013" stroke="#252D3B" stroke-width="0.57042" stroke-miterlimit="10" stroke-linecap="round"/>
<path d="M262.57 446.02C262.57 446.02 262.213 447.804 264.71 447.946" stroke="#252D3B" stroke-width="0.57042" stroke-miterlimit="10" stroke-linecap="round"/>
<path d="M259.644 516.724C259.644 516.724 260.106 508.407 265.881 506.329C265.881 506.329 275.071 506.411 282.25 503.959C289.43 501.508 293.282 515.517 293.282 515.517C293.282 515.517 291.474 517.491 287.06 511.718C286.962 511.59 286.759 511.682 286.797 511.838L287.854 516.218" fill="white"/>
<path d="M259.644 516.724C259.644 516.724 260.106 508.407 265.881 506.329C265.881 506.329 275.071 506.411 282.25 503.959C289.43 501.508 293.282 515.517 293.282 515.517C293.282 515.517 291.474 517.491 287.06 511.718C286.962 511.59 286.759 511.682 286.797 511.838L287.854 516.218" stroke="#252D3B" stroke-width="0.57042" stroke-miterlimit="10" stroke-linecap="round"/>
<path d="M278.145 510.278C278.145 510.278 280.883 507.746 282.664 507.402C284.443 507.06 287.058 511.715 287.058 511.715" fill="white"/>
<path d="M278.145 510.278C278.145 510.278 280.883 507.746 282.664 507.402C284.443 507.06 287.058 511.715 287.058 511.715" stroke="#252D3B" stroke-width="0.57042" stroke-miterlimit="10" stroke-linecap="round"/>
<path d="M277.807 512.469C277.807 512.469 283.626 510.142 283.284 514.454L277.807 512.469Z" fill="white"/>
<path d="M277.807 512.469C277.807 512.469 283.626 510.142 283.284 514.454" stroke="#252D3B" stroke-width="0.57042" stroke-miterlimit="10" stroke-linecap="round"/>
<path d="M261.591 486.99C265.492 490.892 271.39 491.318 274.765 487.945C278.14 484.57 277.712 478.672 273.81 474.771C269.908 470.869 264.01 470.442 260.636 473.817C257.262 477.19 257.689 483.088 261.591 486.99Z" fill="#FB8C00"/>
<path d="M263.277 476.06C263.277 478.672 260.884 480.789 257.932 480.789C254.98 480.789 252.588 478.672 252.588 476.06C252.588 473.449 254.981 471.332 257.932 471.332C260.884 471.332 263.277 473.449 263.277 476.06Z" fill="white" stroke="#252D3B" stroke-width="0.57042" stroke-miterlimit="10" stroke-linecap="round"/>
<path d="M250.5 458.215C250.5 458.215 254.302 464.967 263.382 463.881C272.462 462.795 268.815 458.06 268.815 458.06" stroke="#252D3B" stroke-width="0.57042" stroke-miterlimit="10" stroke-linecap="round"/>
<path d="M253.116 421.736C247.493 420.932 240.354 424.655 244.014 432.526" stroke="#FB8C00" stroke-width="0.57042" stroke-miterlimit="10" stroke-linecap="round"/>
<path d="M270.264 428.721C270.264 428.721 273.603 430.602 273.674 433.369C273.745 436.136 271.688 437.696 271.688 437.696" stroke="#FB8C00" stroke-width="0.57042" stroke-miterlimit="10" stroke-linecap="round"/>
<path d="M360.654 648.635C360.654 648.635 390.328 653.402 417.435 650.013" stroke="#252D3B" stroke-width="0.57042" stroke-miterlimit="10" stroke-linecap="round"/>
<path d="M308.727 514.509H273.801C273.229 514.509 272.766 514.972 272.766 515.544C272.766 516.115 273.229 516.578 273.801 516.578H308.727C309.298 516.578 309.761 516.115 309.761 515.544C309.761 514.973 309.298 514.509 308.727 514.509Z" fill="white" stroke="#252D3B" stroke-width="0.57042" stroke-miterlimit="10" stroke-linecap="round"/>
<path d="M266.173 533.034H226.605L221.627 590.055L291.597 592.195V558.459C291.597 544.417 280.214 533.034 266.173 533.034Z" fill="#252D3B"/>
<path d="M241.149 532.656H220.602" stroke="white" stroke-width="0.57042" stroke-miterlimit="10" stroke-linecap="round"/>
<path d="M291.637 581.904V590.687" stroke="white" stroke-width="0.57042" stroke-miterlimit="10" stroke-linecap="round"/>
<path d="M356.977 640.686C356.977 640.686 371.049 639.5 372.573 650.013L360.573 648.641L357.326 640.784" fill="#252D3B"/>
<path d="M289.267 508.396H384.055C386.532 508.396 388.54 506.388 388.54 503.911L399.105 444.507C399.105 442.03 397.097 440.022 394.62 440.022H299.834C297.357 440.022 295.349 442.03 295.349 444.507L284.784 503.911C284.784 506.388 286.79 508.396 289.267 508.396Z" fill="#252D3B"/>
<path d="M292.273 508.396H387.06C389.537 508.396 391.545 506.388 391.545 503.911L402.11 444.507C402.11 442.03 400.102 440.022 397.625 440.022H302.839C300.362 440.022 298.354 442.03 298.354 444.507L287.789 503.911C287.789 506.388 289.797 508.396 292.273 508.396Z" fill="white" stroke="#252D3B" stroke-width="0.57042" stroke-miterlimit="10" stroke-linecap="round"/>
<path d="M325.386 494.763H361.019C361.95 494.763 362.705 494.008 362.705 493.077L366.678 470.745C366.678 469.814 365.922 469.059 364.991 469.059H329.358C328.427 469.059 327.672 469.814 327.672 470.745L323.701 493.077C323.7 494.008 324.454 494.763 325.386 494.763Z" fill="#FEDBB0"/>
<path d="M329.775 513.403H350.624L357.076 481.467C357.474 479.52 356.652 477.934 354.7 477.934H339.76C337.808 477.934 336.227 479.516 336.227 481.467L329.775 513.403Z" fill="white" stroke="#252D3B" stroke-width="0.57042" stroke-miterlimit="10" stroke-linecap="round"/>
<path d="M354.864 513.138H320.787C319.775 513.138 318.954 513.958 318.954 514.971C318.954 515.983 319.774 516.804 320.787 516.804H354.864C355.876 516.804 356.697 515.984 356.697 514.971C356.697 513.959 355.876 513.138 354.864 513.138Z" fill="#252D3B"/>
<path d="M1306.58 523H133.426C126.562 523 121 520.985 121 518.5C121 516.014 126.565 514 133.426 514H1306.57C1313.44 514 1319 516.015 1319 518.5C1319 520.986 1313.44 523 1306.58 523Z" fill="#FEDBB0"/>
<path d="M1099.6 522.46C1099.6 522.46 1104.23 530.515 1103.83 544.207" stroke="#252D3B" stroke-width="0.5" stroke-miterlimit="10" stroke-linecap="round"/>
<path d="M1110.73 523.624C1110.73 523.624 1113.15 531.88 1110.53 541.143" stroke="#252D3B" stroke-width="0.5" stroke-miterlimit="10" stroke-linecap="round"/>
<path d="M1115.16 497.256C1095.39 498.136 1065.96 419.066 1091.87 430.046C1099.31 433.196 1104.39 440.076 1107.86 448.276C1106.1 454.326 1104.6 461.296 1106.44 463.006C1107.57 464.056 1110.54 462.833 1113.31 458.765C1117.44 476.585 1115.16 497.256 1115.16 497.256Z" fill="#FEDBB0"/>
<path d="M1093.96 444.17C1093.96 444.17 1106.55 469.344 1110.42 492.904" stroke="white" stroke-miterlimit="10"/>
<path d="M1102.72 499.072C1102.24 496.928 1083.99 461.45 1062.39 467.585C1040.79 473.721 1106.06 514.029 1102.72 499.072Z" fill="#FEDBB0"/>
<path d="M1072.93 475.519C1072.93 475.519 1090.03 487.283 1097.99 502.722" stroke="white" stroke-miterlimit="10"/>
<path d="M1105.15 442.464C1105.15 442.464 1109.83 428.174 1118.9 435.869C1130.51 445.727 1121.09 485.335 1121.09 485.335" stroke="#252D3B" stroke-width="0.5" stroke-miterlimit="10" stroke-linecap="round"/>
<path d="M1170.5 465.058H1231.68C1242 465.058 1250.36 473.423 1250.36 483.742V579.739C1250.36 592.448 1240.06 602.75 1227.35 602.75H1151.3C1151.3 602.75 1152.29 521.7 1151.82 483.963C1151.69 473.556 1160.09 465.058 1170.5 465.058Z" fill="#252D3B"/>
<path d="M1233.97 473.499C1236.19 477.235 1238.22 481.856 1240.05 487.542C1241.62 492.418 1244.94 503.956 1244.24 508.212C1240.44 531.564 1212.34 519.14 1212.34 519.14C1212.34 519.14 1227.5 560.248 1145.42 530.678C1145.42 530.678 1154.16 525.989 1158.16 516.092L1121.86 514.529C1121.86 514.529 1121.11 508.5 1139.58 503.213C1149.72 500.316 1152.82 497.268 1155.97 489.62C1157.26 486.477 1158.09 483.167 1158.61 479.81C1159.21 475.951 1160.06 472.938 1161.25 470.485" fill="white"/>
<path d="M1233.97 473.499C1236.19 477.235 1238.22 481.856 1240.05 487.542C1241.62 492.418 1244.94 503.956 1244.24 508.212C1240.44 531.564 1212.34 519.14 1212.34 519.14C1212.34 519.14 1227.5 560.248 1145.42 530.678C1145.42 530.678 1154.16 525.989 1158.16 516.092L1121.86 514.529C1121.86 514.529 1121.11 508.5 1139.58 503.213C1149.72 500.316 1152.82 497.268 1155.97 489.62C1157.26 486.477 1158.09 483.167 1158.61 479.81C1159.21 475.951 1160.06 472.938 1161.25 470.485" stroke="#252D3B" stroke-width="0.554159" stroke-miterlimit="10" stroke-linecap="round"/>
<path d="M1176.66 536.287C1176.66 536.287 1164.13 530.314 1141.76 530.645C1127.76 530.852 1106.7 536.31 1095.64 544.89C1086.66 551.843 1078.33 562.207 1077.68 576.907C1076.83 596.288 1091.34 634.124 1091.34 634.124C1091.34 634.124 1109.91 638.391 1130.61 630.736C1130.61 630.736 1129.53 597.718 1121.16 580.995C1120.44 579.557 1121.5 577.863 1123.11 577.847C1136.01 577.712 1177.81 576.167 1176.66 561.779C1175.3 544.772 1176.66 536.287 1176.66 536.287Z" fill="#FB8C00"/>
<path d="M1130.75 630.6C1130.75 630.6 1131.28 634.661 1132.42 640.047C1133.98 647.421 1134.12 651.249 1134.12 651.249C1134.12 651.249 1097.84 657.646 1074.4 652.763C1074.4 652.763 1075.53 647.409 1087.33 643.32C1092.12 641.66 1091.46 634.502 1091.46 634.502" stroke="#252D3B" stroke-width="0.554159" stroke-miterlimit="10" stroke-linecap="round"/>
<path d="M1133.89 648.752C1133.89 648.752 1101.6 654.887 1075.7 650.718" stroke="#252D3B" stroke-width="0.554159" stroke-miterlimit="10" stroke-linecap="round"/>
<path d="M1176.64 482.538C1176.64 482.538 1173.41 487.944 1174.88 493.851C1176.36 499.759 1179.9 510.267 1178.78 516.418" stroke="white" stroke-width="0.554159" stroke-miterlimit="10" stroke-linecap="round"/>
<path d="M1188.56 505.816C1188.56 505.816 1212.42 494.362 1224.44 500.13L1188.56 505.816Z" fill="white"/>
<path d="M1188.56 505.816C1188.56 505.816 1212.42 494.362 1224.44 500.13" stroke="#252D3B" stroke-width="0.554159" stroke-miterlimit="10" stroke-linecap="round"/>
<path d="M1211.73 485.42C1211.73 485.42 1215.88 489.855 1218.08 498.391L1211.73 485.42Z" fill="white"/>
<path d="M1211.73 485.42C1211.73 485.42 1215.88 489.855 1218.08 498.391" stroke="#252D3B" stroke-width="0.554159" stroke-miterlimit="10" stroke-linecap="round"/>
<path d="M1226.55 651.002H1231.2V595.898H1219.58L1226.55 651.002Z" fill="#252D3B"/>
<path d="M1194.36 515.837C1194.36 515.837 1193.91 507.758 1188.3 505.738C1188.3 505.738 1179.37 505.818 1172.39 503.436C1165.42 501.055 1161.68 514.665 1161.68 514.665C1161.68 514.665 1163.43 516.582 1167.72 510.974C1167.82 510.85 1168.01 510.939 1167.98 511.091L1166.95 515.345" fill="#FEDBB0"/>
<path d="M1176.38 509.577C1176.38 509.577 1173.72 507.116 1171.99 506.783C1170.26 506.45 1165.93 513.009 1165.93 513.009" stroke="#252D3B" stroke-width="0.554159" stroke-miterlimit="10" stroke-linecap="round"/>
<path d="M1176.72 511.707C1176.72 511.707 1171.06 509.446 1171.4 513.636" stroke="#252D3B" stroke-width="0.554159" stroke-miterlimit="10" stroke-linecap="round"/>
<path d="M1167.4 632C1167.4 632 1167.93 636.061 1169.07 641.447C1170.63 648.821 1170.77 652.649 1170.77 652.649C1170.77 652.649 1134.49 659.046 1111.05 654.163C1111.05 654.163 1112.18 648.81 1123.98 644.72C1128.77 643.06 1128.11 635.902 1128.11 635.902" fill="white"/>
<path d="M1167.4 632C1167.4 632 1167.93 636.061 1169.07 641.447C1170.63 648.821 1170.77 652.649 1170.77 652.649C1170.77 652.649 1134.49 659.046 1111.05 654.163C1111.05 654.163 1112.18 648.81 1123.98 644.72C1128.77 643.06 1128.11 635.902 1128.11 635.902" stroke="#252D3B" stroke-width="0.554159" stroke-miterlimit="10" stroke-linecap="round"/>
<path d="M1213.31 537.692C1213.31 537.692 1200.78 531.719 1178.41 532.049C1164.41 532.257 1143.36 537.716 1132.28 546.295C1123.31 553.248 1114.98 563.612 1114.33 578.312C1113.48 597.693 1127.98 635.529 1127.98 635.529C1127.98 635.529 1146.56 639.796 1167.26 632.14C1167.26 632.14 1166.18 599.123 1157.81 582.4C1157.09 580.962 1158.15 579.268 1159.75 579.252C1172.66 579.117 1214.46 577.571 1213.31 563.184C1211.95 546.177 1213.31 537.692 1213.31 537.692Z" fill="#FB8C00"/>
<path d="M1126.43 632.298C1126.43 632.298 1100.88 580.543 1114 558.932C1126.25 538.746 1165.2 533.204 1165.2 533.204" stroke="#252D3B" stroke-width="0.554159" stroke-miterlimit="10" stroke-linecap="round"/>
<path d="M1189.87 555.619C1189.87 555.619 1174.88 567.521 1148.8 569.091C1143.57 569.406 1140.06 574.58 1141.74 579.543C1146.15 592.597 1153.35 615.646 1156.37 635.275" stroke="#252D3B" stroke-width="0.554159" stroke-miterlimit="10" stroke-linecap="round"/>
<path d="M1170.54 650.153C1170.54 650.153 1138.24 656.288 1112.35 652.118" stroke="#252D3B" stroke-width="0.554159" stroke-miterlimit="10" stroke-linecap="round"/>
<path d="M1197.36 529.178H1233.89V592.785H1180.36V546.169C1180.37 536.785 1187.97 529.178 1197.36 529.178Z" fill="#252D3B"/>
<path d="M1106.54 634.149C1106.98 621.809 1088.48 626.468 1088.48 626.468C1088.48 626.468 1089.35 630.567 1090.35 634.29C1091.51 638.623 1091.76 641.328 1087.33 643.322C1087.33 643.322 1105.91 651.594 1106.54 634.149Z" fill="#252D3B"/>
<path d="M1105.16 643.403C1104.91 643.403 1098.18 637.965 1089.88 638.877" stroke="white" stroke-width="1.10832" stroke-miterlimit="10"/>
<path d="M1087.95 642.219C1087.95 642.219 1095.39 641.051 1100.7 645.731" stroke="white" stroke-width="1.10832" stroke-miterlimit="10"/>
<path d="M1122.67 645.17C1122.67 645.17 1128.6 649.404 1134.77 646.38C1140.94 643.355 1141.3 631.617 1137.67 628.834C1134.04 626.051 1124.36 627.382 1124.36 627.382C1124.36 627.382 1126.67 636.763 1126.94 641.084C1127.09 643.376 1122.67 645.17 1122.67 645.17Z" fill="#252D3B"/>
<path d="M1139.07 645.686C1139.07 645.686 1132.67 640.753 1126.5 641.222" stroke="white" stroke-width="1.10832" stroke-miterlimit="10"/>
<path d="M1136.11 648.327C1136.11 648.327 1129.71 643.394 1123.55 643.864" stroke="white" stroke-width="1.10832" stroke-miterlimit="10"/>
<path d="M1170.18 482.999C1170.18 482.999 1166.35 506.339 1157.46 514.178" stroke="#252D3B" stroke-width="0.554159" stroke-miterlimit="10" stroke-linecap="round"/>
<path d="M1233.97 473.5C1233.93 473.522 1233.91 473.533 1233.91 473.533C1190.69 477.423 1161.18 471.017 1161.18 471.017C1161.2 470.84 1161.23 470.662 1161.25 470.485C1162.96 466.927 1165.36 464.567 1168.67 462.549C1180.42 455.412 1189.39 460.1 1196.27 459.358C1211.84 457.673 1224.62 457.828 1233.97 473.5Z" fill="#FB8C00"/>
<path d="M1177.36 433.615C1173.9 434.917 1169.84 433.81 1171 437.909C1171.74 440.554 1171.7 441.274 1172.43 445.433C1173.99 454.327 1181.69 457.555 1188.27 451.963C1194.97 446.279 1195.21 442.129 1190.7 432.778C1187.4 425.912 1184.44 430.184 1184.44 430.184C1184.44 430.184 1181.68 431.992 1177.36 433.615Z" fill="#FEDBB0"/>
<path d="M1173.12 441.599C1173.4 442.232 1173.89 442.632 1174.2 442.492C1174.51 442.353 1174.54 441.726 1174.26 441.093C1173.98 440.461 1173.49 440.061 1173.18 440.2C1172.87 440.339 1172.84 440.965 1173.12 441.599Z" fill="#252D3B"/>
<path d="M1179.94 439.518C1180.06 440.192 1180.44 440.716 1180.79 440.691C1181.13 440.664 1181.32 440.097 1181.2 439.423C1181.08 438.749 1180.7 438.225 1180.36 438.25C1180.01 438.277 1179.82 438.844 1179.94 439.518Z" fill="#252D3B"/>
<path d="M1182.69 454.699C1182.69 454.699 1184.34 457.108 1184.4 460.378C1184.45 463.346 1186.63 465.895 1189.58 466.153C1189.64 466.157 1189.69 466.162 1189.75 466.166C1192.75 466.391 1201.1 465.018 1200.05 458.952C1200.05 458.952 1194.25 447.296 1193.22 441.573C1193.22 441.573 1183.23 453.65 1182.69 454.699Z" fill="#FEDBB0"/>
<path d="M1182.69 454.7C1182.69 454.7 1186.55 453.853 1189.56 450.191C1192.57 446.529 1190.48 456.377 1184.12 458.84C1184.12 458.84 1184.09 457.232 1182.69 454.7Z" fill="#252D3B"/>
<path d="M1178.43 436.915C1178.43 436.915 1182.92 436.338 1183.45 435.687C1184.16 434.805 1177.89 432.067 1178.43 436.915Z" fill="#252D3B"/>
<path d="M1174.99 437.953C1174.99 437.953 1170.9 439.902 1170.1 439.639C1169.03 439.283 1172.82 433.588 1174.99 437.953Z" fill="#252D3B"/>
<path d="M1190.78 438.59C1190.78 438.59 1191.83 435.474 1194.15 434.953C1196.46 434.432 1197.68 441.52 1192.7 442.213C1187.71 442.906 1190.78 438.59 1190.78 438.59Z" fill="#FEDBB0"/>
<path d="M1192.7 438.795C1192.7 438.795 1192.61 436.915 1194.25 436.4" stroke="#252D3B" stroke-width="0.554159" stroke-miterlimit="10" stroke-linecap="round"/>
<path d="M1193.44 442.263C1193.44 442.263 1196.5 453.397 1200.23 459.402" stroke="#252D3B" stroke-width="0.554159" stroke-miterlimit="10" stroke-linecap="round"/>
<path d="M1171.92 443.341C1174.24 452.042 1177.95 456.982 1183.94 454.502" stroke="#252D3B" stroke-width="0.554159" stroke-miterlimit="10" stroke-linecap="round"/>
<path d="M1182.81 448.849C1182.81 448.849 1180.76 450.749 1179.35 449.977" stroke="#252D3B" stroke-width="0.554159" stroke-miterlimit="10" stroke-linecap="round"/>
<path d="M1186.94 427.976C1186.94 427.976 1177.6 437.664 1166.74 436.264L1168.65 434.473L1165.94 432.62C1165.94 432.62 1168.4 432.586 1171.42 430.651C1174.44 428.717 1180.88 423.616 1186.21 425.827C1191.55 428.038 1186.94 427.976 1186.94 427.976Z" fill="#252D3B"/>
<path d="M1184.65 429.204C1184.65 429.204 1186.36 433.202 1188.82 433.856C1191.28 434.51 1191.57 436.898 1191.57 436.898C1191.57 436.898 1192.68 435.288 1193.58 434.955C1193.58 434.955 1192.24 423.304 1184.97 425.211L1184.65 429.204Z" fill="#252D3B"/>
<path d="M1213.04 529.558H1229.36" stroke="white" stroke-width="0.554159" stroke-miterlimit="10" stroke-linecap="round"/>
<path d="M1180.54 578.092V587.032" stroke="white" stroke-width="0.554159" stroke-miterlimit="10" stroke-linecap="round"/>
<path d="M1194.36 515.397H1180.39" stroke="#252D3B" stroke-width="0.554159" stroke-miterlimit="10" stroke-linecap="round"/>
<path d="M1166.25 505.429C1166.25 505.429 1164.04 502.727 1161.02 503.416C1158.01 504.106 1155.05 509.221 1155.91 509.48C1156.53 509.666 1158.8 508.25 1160.02 507.437C1160.52 507.113 1161.15 507.13 1161.63 507.479L1163.75 509.049L1166.25 505.429Z" fill="#FEDBB0" stroke="#252D3B" stroke-width="0.554159" stroke-miterlimit="10" stroke-linecap="round"/>
<path d="M1167.3 504.431C1167.3 504.431 1163.46 508.446 1162.04 513.466L1167.3 504.431Z" fill="#FEDBB0"/>
<path d="M1167.3 504.431C1167.3 504.431 1163.46 508.446 1162.04 513.466" stroke="#252D3B" stroke-width="0.554159" stroke-miterlimit="10" stroke-linecap="round"/>
<path d="M1130.59 513.138H1080.46C1079.66 513.138 1078.98 512.54 1078.88 511.743L1075.01 480.79C1074.89 479.839 1075.63 479 1076.59 479H1126.72C1127.53 479 1128.21 479.598 1128.31 480.395L1132.17 511.348C1132.29 512.298 1131.55 513.138 1130.59 513.138Z" fill="#252D3B"/>
<path d="M1104.97 498.573C1104.32 499.501 1102.64 499.447 1101.22 498.451C1099.81 497.456 1099.19 495.896 1099.84 494.968C1100.49 494.04 1102.17 494.094 1103.59 495.09C1105 496.085 1105.62 497.645 1104.97 498.573Z" fill="#252D3B" stroke="white" stroke-miterlimit="10"/>
<path d="M1121.75 510.862H1160.79C1161.43 510.862 1161.95 511.38 1161.95 512.019C1161.95 512.658 1161.43 513.176 1160.79 513.176H1121.75C1121.11 513.176 1120.59 512.658 1120.59 512.019C1120.59 511.38 1121.11 510.862 1121.75 510.862Z" fill="#252D3B"/>
<path d="M164.46 520.059H160V644.733H164.46V520.059Z" fill="#FEDBB0"/>
<path d="M1279 523H1275V648H1279V523Z" fill="#FEDBB0"/>
<path d="M1351.28 581.797C1327.39 600.907 1328.98 625.427 1328.98 625.427C1326.43 627.617 1324.23 629.027 1322.35 629.847C1321.68 619.787 1322.27 602.827 1330.79 586.757C1334.64 579.497 1340.21 568.087 1344.6 558.937C1343.76 562.337 1344.62 559.009 1344.62 559.009C1355.13 553.599 1375.17 562.687 1351.28 581.797Z" fill="#FEDBB0"/>
<path d="M1346.67 546.333C1346.25 552.929 1344.42 559.355 1341.53 565.303C1337.82 572.954 1333.79 581.111 1330.79 586.757C1322.27 602.827 1321.68 619.787 1322.35 629.847C1320.8 630.527 1319.47 630.807 1318.31 630.807C1315.57 630.807 1313.84 629.217 1312.77 627.477C1311.46 625.357 1311.13 623.007 1311.13 623.007C1297.74 586.507 1307.01 532.437 1331.85 528.297C1344.9 526.124 1347.32 536.236 1346.67 546.333Z" fill="white" stroke="#252D3B" stroke-width="0.5" stroke-miterlimit="10" stroke-linecap="round"/>
<path d="M1344.82 533.085C1344.82 533.085 1334.43 542.454 1338 545.842C1340.47 548.179 1346.68 542.486 1346.68 542.486" stroke="#252D3B" stroke-width="0.5" stroke-miterlimit="10" stroke-linecap="round"/>
<path d="M1305 589.285C1305 589.285 1308.44 593.562 1310.21 591.455C1312.24 589.046 1305.5 577.474 1305.5 577.474" stroke="#252D3B" stroke-width="0.5" stroke-miterlimit="10" stroke-linecap="round"/>
<path d="M1331.07 539.833C1331.07 539.833 1309.16 581.122 1316.74 623.815" stroke="#252D3B" stroke-width="0.5" stroke-miterlimit="10" stroke-linecap="round"/>
<path d="M1335.72 645.026H1306.97V627.173C1306.97 624.872 1308.84 623.006 1311.14 623.006H1331.55C1333.85 623.006 1335.72 624.872 1335.72 627.173V645.026Z" fill="white" stroke="#252D3B" stroke-width="0.5" stroke-miterlimit="10" stroke-linecap="round"/>
<path d="M124.85 575.135C124.85 575.135 136.437 563.983 147.234 572.357C160.734 582.826 132.585 597.652 134.822 621.916" fill="white"/>
<path d="M124.85 575.135C124.85 575.135 136.437 563.983 147.234 572.357C160.734 582.826 132.585 597.652 134.822 621.916" stroke="#252D3B" stroke-width="0.5" stroke-miterlimit="10" stroke-linecap="round"/>
<path d="M98.3186 574.946C98.3186 574.946 90.8636 570.473 87.0536 576.603C83.2436 582.732 84.4026 596.648 93.3486 600.624C102.295 604.6 97.8216 612.883 105.442 615.534C113.063 618.185 117.37 621.664 116.541 624.645C115.712 627.626 124.493 625.97 124.493 625.97C124.493 625.97 119.192 585.879 98.3186 574.946Z" fill="#FEDBB0"/>
<path d="M123.162 627.371C120.067 629.507 122.546 619.363 115.131 614.056C112.313 612.039 108.863 609.568 109.172 602.758C109.791 589.138 96.7896 592.234 97.4096 582.328C98.0286 572.423 104.22 566.851 93.6946 555.088C83.1706 543.325 92.8206 530.223 108.235 538.712C121.449 545.989 127.179 559.686 124.649 577.375C122.802 590.292 137.208 617.68 123.162 627.371Z" fill="white" stroke="#252D3B" stroke-width="0.5" stroke-miterlimit="10" stroke-linecap="round"/>
<path d="M114.852 573.454C114.852 573.454 118.367 578.859 115.921 587.091C113.475 595.323 130.326 608.433 122.419 629.609" stroke="#252D3B" stroke-width="0.5" stroke-miterlimit="10" stroke-linecap="round"/>
<path d="M141.324 644.497H112.576V627.033C112.576 624.517 114.616 622.477 117.132 622.477H136.768C139.284 622.477 141.324 624.517 141.324 627.033V644.497Z" fill="white" stroke="#252D3B" stroke-width="0.5" stroke-miterlimit="10" stroke-linecap="round"/>
<path d="M1054.49 513.579C1059.74 513.579 1063.99 509.328 1063.99 504.084V493.557C1063.99 492.697 1063.29 492 1062.43 492H1046.56C1045.7 492 1045 492.697 1045 493.557V504.084C1045 509.328 1049.25 513.579 1054.49 513.579Z" fill="#252D3B"/>
<path d="M1064.85 508.324C1061.32 508.324 1058.45 505.454 1058.45 501.927C1058.45 498.4 1061.32 495.53 1064.85 495.53C1068.38 495.53 1071.25 498.4 1071.25 501.927C1071.25 505.453 1068.38 508.324 1064.85 508.324ZM1064.85 498.529C1062.98 498.529 1061.45 500.053 1061.45 501.926C1061.45 503.799 1062.98 505.323 1064.85 505.323C1066.72 505.323 1068.25 503.799 1068.25 501.926C1068.25 500.053 1066.72 498.529 1064.85 498.529Z" fill="#252D3B"/>
<path d="M1051.27 502.669C1051.27 504.8 1052.67 506.527 1054.4 506.527C1056.13 506.527 1057.53 504.799 1057.53 502.669C1057.53 500.538 1056.13 498.81 1054.4 498.81C1052.67 498.81 1051.27 500.538 1051.27 502.669Z" fill="white"/>
<path d="M1225.99 238H1138V353.862H1225.99V238Z" fill="#FFF4E6" fill-opacity="0.5" stroke="#252D3B" stroke-width="0.5" stroke-miterlimit="10" stroke-linecap="round"/>
<path d="M1201.38 293.254C1213.56 290.349 1221.08 278.117 1218.18 265.935C1215.27 253.753 1203.04 246.233 1190.86 249.138C1178.67 252.044 1171.15 264.275 1174.06 276.457C1176.97 288.64 1189.2 296.16 1201.38 293.254Z" fill="#FEDBB0"/>
<path d="M1208.01 337.916C1210.66 337.916 1212.8 335.77 1212.8 333.122C1212.8 330.474 1210.66 328.328 1208.01 328.328C1205.36 328.328 1203.22 330.474 1203.22 333.122C1203.22 335.77 1205.36 337.916 1208.01 337.916Z" fill="#FFF4E6"/>
<path d="M1167.98 340.147C1172.42 338.295 1174.52 333.192 1172.67 328.749C1170.82 324.306 1165.71 322.206 1161.27 324.058C1156.83 325.91 1154.73 331.013 1156.58 335.456C1158.43 339.899 1163.53 341.999 1167.98 340.147Z" fill="#FEDBB0"/>
<path d="M1172.36 296C1172.36 296 1173.34 308.006 1189.27 307.026C1205.2 306.046 1201.52 329.323 1187.31 331.283C1173.1 333.243 1188.05 315.357 1202.75 319.767C1217.45 324.177 1218.18 333.978 1218.18 333.978" fill="#FFF4E6"/>
<path d="M1172.36 296C1172.36 296 1173.34 308.006 1189.27 307.026C1205.2 306.046 1201.52 329.323 1187.31 331.283C1173.1 333.243 1188.05 315.357 1202.75 319.767C1217.45 324.177 1218.18 333.978 1218.18 333.978" stroke="#252D3B" stroke-width="0.5" stroke-miterlimit="10" stroke-linecap="round"/>
</g>
<rect x="0.5" y="0.5" width="1439" height="719" stroke="black"/>
<defs>
<filter id="filter0_f_593_643" x="-292.45" y="-203.489" width="1388.47" height="1388.47" filterUnits="userSpaceOnUse" color-interpolation-filters="sRGB">
<feFlood flood-opacity="0" result="BackgroundImageFix"/>
<feBlend mode="normal" in="SourceGraphic" in2="BackgroundImageFix" result="shape"/>
<feGaussianBlur stdDeviation="276.725" result="effect1_foregroundBlur_593_643"/>
</filter>
<filter id="filter1_f_593_643" x="383.323" y="-329.466" width="1358.12" height="1358.12" filterUnits="userSpaceOnUse" color-interpolation-filters="sRGB">
<feFlood flood-opacity="0" result="BackgroundImageFix"/>
<feBlend mode="normal" in="SourceGraphic" in2="BackgroundImageFix" result="shape"/>
<feGaussianBlur stdDeviation="276.725" result="effect1_foregroundBlur_593_643"/>
</filter>
<clipPath id="clip0_593_643">
<rect width="1440" height="720" fill="white"/>
</clipPath>
</defs>
</svg>
