<svg width="1440" height="720" viewBox="0 0 1440 720" fill="none" xmlns="http://www.w3.org/2000/svg">
<g clip-path="url(#clip0_1597_3915)">
<rect width="1440" height="720" fill="#FBFCFF"/>
<g opacity="0.4">
<mask id="path-1-inside-1_1597_3915" fill="white">
<path d="M0 616H1440V688H0V616Z"/>
</mask>
<path d="M0 616H1440V688H0V616Z" fill="#DCDFEA"/>
<path d="M0 616.5H1440V615.5H0V616.5Z" fill="#FEDBB0" mask="url(#path-1-inside-1_1597_3915)"/>
</g>
<g opacity="0.5" filter="url(#filter0_f_1597_3915)">
<circle cx="421.169" cy="436.314" r="156.458" fill="#789EFF"/>
</g>
<g filter="url(#filter1_f_1597_3915)">
<circle cx="991.743" cy="296.06" r="139.595" fill="#9876FF"/>
</g>
<path d="M115.932 490.766C115.618 492.943 115.514 495.154 115.705 497.345C116.303 504.185 119.286 508.145 129.847 506.984C142.776 505.563 139.945 493.046 138.306 488.121C138.017 487.251 136.865 487.069 136.312 487.801L134.526 490.167C133.715 491.241 132.445 491.87 131.099 491.863L123.768 491.826C122.433 491.819 121.708 491.038 120.713 489.963L118.38 487.458C117.77 486.644 116.48 486.974 116.335 487.98L115.932 490.766Z" fill="#252D3B"/>
<path d="M122.961 498.806C122.961 498.806 112.781 506.158 119.002 516.479L163.692 516.792C167.183 516.792 169.278 511.726 167.2 506.789C164.561 500.521 159.989 497.874 154.079 496.916C139.659 494.578 134.837 501.492 133.424 496.543C132.01 491.595 122.961 498.806 122.961 498.806Z" fill="#252D3B"/>
<path d="M123.402 508.207C123.402 508.207 123.61 512.26 127.663 512.884C131.716 513.508 132.756 516.833 132.756 516.833" stroke="white" stroke-width="0.5" stroke-miterlimit="10" stroke-linecap="round"/>
<path d="M160.837 508.012C160.837 513.052 142.105 504.867 141.672 517.025" stroke="white" stroke-width="0.5" stroke-miterlimit="10" stroke-linecap="round"/>
<path d="M135.667 507.941C135.667 507.941 137.879 511.115 136.437 513.52C134.994 515.925 135.764 516.887 135.764 516.887" stroke="white" stroke-width="0.5" stroke-miterlimit="10" stroke-linecap="round"/>
<path d="M133.975 498.775C133.975 498.775 133.768 497.068 132.378 497.106C130.987 497.144 130.711 498.81 130.711 498.81" stroke="white" stroke-width="0.5" stroke-miterlimit="10" stroke-linecap="round"/>
<path d="M122.334 498.674C122.334 498.674 122.127 496.967 120.737 497.005C119.347 497.043 119.07 498.709 119.07 498.709" stroke="white" stroke-width="0.5" stroke-miterlimit="10" stroke-linecap="round"/>
<path d="M118.47 493.745C118.244 493.826 118.002 493.68 117.967 493.443C117.802 492.337 117.47 489.659 118.25 490.425C118.931 491.094 119.875 491.947 120.437 492.448C120.652 492.64 120.581 492.989 120.31 493.086L118.47 493.745Z" fill="white"/>
<path d="M136.405 494.3C136.631 494.381 136.873 494.235 136.909 493.997C137.074 492.89 137.406 490.213 136.626 490.979C135.945 491.648 135.001 492.501 134.439 493.002C134.224 493.194 134.295 493.543 134.566 493.64L136.405 494.3Z" fill="white"/>
<path d="M125.887 500.962L124.16 499.952C124.16 499.952 125.467 498.61 127.568 499.746L125.887 500.962Z" fill="white"/>
<g opacity="0.3" filter="url(#filter2_f_1597_3915)">
<path d="M542.573 490.748C542.573 568.502 479.541 631.534 401.787 631.534C324.032 631.534 261 568.502 261 490.748C261 412.993 324.032 349.961 401.787 349.961C479.541 349.961 542.573 412.993 542.573 490.748Z" fill="#0048FF"/>
</g>
<g opacity="0.4" filter="url(#filter3_f_1597_3915)">
<circle cx="1062.39" cy="349.596" r="125.612" fill="#9876FF"/>
</g>
<path d="M298.268 409.48C301.845 416.389 301.44 420.664 295.134 426.139C288.827 431.614 296.056 437.271 302.48 438.427" stroke="#583100" stroke-width="0.57042" stroke-miterlimit="10"/>
<path d="M319.495 446.515C309.611 448.408 299.636 442.645 296.704 433.018C296.188 431.324 295.948 429.725 296.227 428.474C297.716 421.797 304.051 421.841 300.585 415.218C296.553 407.51 295.191 401.359 301.375 396.041C303.768 393.984 303.572 390.755 308.178 388.24C309.277 387.641 310.336 387.739 310.89 387.273C318.509 380.856 326.405 389.753 327.677 392.793C328.187 394.013 329.326 394.767 330.591 394.855C331.778 394.937 334.282 394.835 337.328 396.485C340.554 398.233 343.348 401.741 343.892 404.584C344.136 405.857 344.929 406.94 346.069 407.557C347.903 408.551 360.73 415.909 358.878 427.015C357.334 436.282 356.167 440.772 356.167 440.772C356.167 440.772 332.874 443.953 319.495 446.515Z" fill="#583100"/>
<path d="M327.186 419.496C327.186 419.496 345.929 417.586 357.644 428.715C369.36 439.844 371.132 504.616 378.454 510.766C385.776 516.917 395.006 515.5 390.755 516.917C389.876 517.21 275.07 516.331 275.07 516.331C275.07 516.331 296.013 481.369 290.593 460.686C284.258 436.509 292.202 430.551 314.618 422.576" fill="white"/>
<path d="M327.186 419.496C327.186 419.496 345.929 417.586 357.644 428.715C369.36 439.844 371.132 504.616 378.454 510.766C385.776 516.917 395.006 515.5 390.755 516.917C389.876 517.21 275.07 516.331 275.07 516.331C275.07 516.331 296.013 481.369 290.593 460.686C284.258 436.509 292.202 430.551 314.618 422.576" stroke="#252D3B" stroke-width="0.57042" stroke-miterlimit="10" stroke-linecap="round"/>
<path d="M386.517 627.844C386.517 627.844 389.698 634.196 396.349 637.284C402.999 640.371 404.263 644.975 404.739 645.687C404.739 645.687 390.178 648.113 368.562 646.071C355.312 644.819 349.798 644.883 349.798 644.883L344.336 628.258C344.336 628.258 371.462 630.755 386.517 627.844Z" fill="#666666"/>
<path d="M320.078 634.224L323.144 648.346C323.144 648.346 316.806 649.903 310.766 650.154C302.267 650.506 292.116 649.374 281.469 647.291L287.805 633.828L320.078 634.224Z" fill="#666666"/>
<path d="M356.486 485.334C356.486 485.334 354.924 513.444 364.815 545.72C374.707 577.994 386.68 627.969 386.68 627.969C386.68 627.969 358.112 642.293 332.084 607.415C330.214 604.91 337.381 630.797 333.709 632.772C321.281 639.454 288.849 635.698 288.849 635.698C288.849 635.698 287.187 503.501 296.102 479.609L356.486 485.334Z" fill="#0C0C0C"/>
<path d="M309.32 399.203C308.244 402.153 302.882 401.069 303.791 404.568C304.377 406.826 304.381 405.604 304.926 409.145C306.094 416.72 312.572 419.593 318.257 414.963C324.036 410.257 324.341 408.567 320.683 400.552C319.34 397.61 317.788 397.213 316.571 397.551C315.29 397.905 313.935 397.71 312.907 396.87C311.884 396.031 310.518 395.921 309.32 399.203Z" fill="white"/>
<path d="M306.316 408.714C306.544 409.256 306.947 409.604 307.215 409.491C307.483 409.378 307.516 408.848 307.288 408.306C307.06 407.764 306.657 407.416 306.389 407.529C306.121 407.642 306.088 408.173 306.316 408.714Z" fill="#252D3B"/>
<path d="M313.571 406.659C313.66 407.233 313.972 407.685 314.268 407.669C314.564 407.653 314.732 407.174 314.643 406.6C314.554 406.026 314.242 405.574 313.946 405.59C313.649 405.607 313.482 406.085 313.571 406.659Z" fill="#252D3B"/>
<path d="M313.469 417.186C313.469 417.186 315.449 420.199 314.623 423.821C314.623 423.821 322.522 428.572 327.188 419.494C327.188 419.494 323.41 411.105 322.641 406.23C322.641 406.23 313.952 416.306 313.469 417.186Z" fill="white"/>
<path d="M313.469 417.186C313.469 417.186 316.76 416.535 319.379 413.479C321.999 410.424 320.054 418.744 314.619 420.724C314.619 420.724 314.62 419.359 313.469 417.186Z" fill="#252D3B"/>
<path d="M306.639 404.592C306.639 404.592 305.136 405.098 304.252 406.169C303.367 407.24 304.596 402.91 306.639 404.592Z" fill="#252D3B"/>
<path d="M313.344 402.37C313.344 402.37 316.029 402.371 317.056 402.562C318.001 402.736 314.785 399.601 313.344 402.37Z" fill="#252D3B"/>
<path d="M320.614 403.663C320.614 403.663 321.563 401.038 323.535 400.636C325.506 400.235 326.42 406.271 322.18 406.772C317.938 407.273 320.614 403.663 320.614 403.663Z" fill="white"/>
<path d="M322.361 406.972C322.728 407.842 323.73 408.251 324.602 407.885C325.472 407.518 325.881 406.516 325.515 405.645C325.148 404.775 324.146 404.365 323.274 404.732C322.404 405.098 321.994 406.1 322.361 406.972Z" fill="#252D3B"/>
<path d="M322.242 403.869C322.242 403.869 322.199 402.273 323.597 401.863" stroke="#252D3B" stroke-width="0.57042" stroke-miterlimit="10" stroke-linecap="round"/>
<path d="M307.765 412.698C309.762 412.698 311.381 411.079 311.381 409.081C311.381 407.084 309.762 405.465 307.765 405.465C305.768 405.465 304.148 407.084 304.148 409.081C304.148 411.079 305.768 412.698 307.765 412.698Z" stroke="#252D3B" stroke-width="0.57042" stroke-miterlimit="10" stroke-linecap="round"/>
<path d="M312.148 406.991C312.148 408.988 313.767 410.608 315.765 410.608C317.763 410.608 319.381 408.989 319.381 406.991C319.381 404.994 317.763 403.375 315.765 403.375C313.767 403.375 312.148 404.994 312.148 406.991Z" stroke="#252D3B" stroke-width="0.57042" stroke-miterlimit="10" stroke-linecap="round"/>
<path d="M333.259 568.709C333.259 568.709 329.272 547.452 327.703 526.422" stroke="#3B485E" stroke-width="0.57042" stroke-miterlimit="10" stroke-linecap="round"/>
<path d="M400.531 513.012C400.531 513.012 403.523 515.722 407.168 516.377L400.531 513.012Z" fill="white"/>
<path d="M400.531 513.012C400.531 513.012 403.523 515.722 407.168 516.377" stroke="#252D3B" stroke-width="0.57042" stroke-miterlimit="10" stroke-linecap="round"/>
<path d="M357.695 508.633C357.695 508.633 360.08 514.853 365.471 516.513L357.695 508.633Z" fill="white"/>
<path d="M357.695 508.633C357.695 508.633 360.08 514.853 365.471 516.513" stroke="#252D3B" stroke-width="0.57042" stroke-miterlimit="10" stroke-linecap="round"/>
<path d="M331.242 419.707C331.242 419.707 328.959 427.885 319.411 430.23C310.249 432.481 311.602 423.705 311.602 423.705" fill="white"/>
<path d="M331.242 419.707C331.242 419.707 328.959 427.885 319.411 430.23C310.249 432.481 311.602 423.705 311.602 423.705" stroke="#252D3B" stroke-width="0.57042" stroke-miterlimit="10" stroke-linecap="round"/>
<path d="M315.832 412.039C315.832 412.039 315.946 413.561 314.234 413.978L315.832 412.039Z" fill="white"/>
<path d="M315.832 412.039C315.832 412.039 315.946 413.561 314.234 413.978" stroke="#252D3B" stroke-width="0.57042" stroke-miterlimit="10" stroke-linecap="round"/>
<path d="M318.844 404.961C318.844 404.961 321.011 400.435 323.979 400.473L318.844 404.961Z" fill="white"/>
<path d="M318.844 404.961C318.844 404.961 321.011 400.435 323.979 400.473" stroke="#252D3B" stroke-width="0.57042" stroke-miterlimit="10" stroke-linecap="round"/>
<path d="M311.195 407.585L312.184 407.281" stroke="#252D3B" stroke-width="0.57042" stroke-miterlimit="10" stroke-linecap="round"/>
<path d="M310.617 395.473C310.617 395.473 314.137 401.437 320.59 397.135" stroke="#583100" stroke-width="0.57042" stroke-miterlimit="10"/>
<path d="M366.729 554.352C366.729 554.352 342.936 578.835 376.73 587.111" stroke="#434E62" stroke-width="0.57042" stroke-miterlimit="10" stroke-linecap="round"/>
<path d="M304.239 392.168C304.239 392.168 304.239 394.706 297.35 397.788C290.46 400.869 291.367 410.478 295.537 410.841" stroke="#583100" stroke-width="0.57042" stroke-miterlimit="10"/>
<path d="M354.516 501.11H376.18C376.968 501.11 377.551 500.376 377.372 499.608L376.554 496.1C376.425 495.545 375.931 495.153 375.362 495.153L354.516 495.148V501.11Z" fill="#252D3B"/>
<path d="M259.399 636.293C259.399 636.293 258.85 640.473 257.677 646.018C256.072 653.608 255.926 657.548 255.926 657.548C255.926 657.548 293.27 664.133 317.399 659.106C317.399 659.106 316.236 653.596 304.092 649.386C299.161 647.677 299.839 640.31 299.839 640.31" fill="white"/>
<path d="M259.399 636.293C259.399 636.293 258.85 640.473 257.677 646.018C256.072 653.608 255.926 657.548 255.926 657.548C255.926 657.548 293.27 664.133 317.399 659.106C317.399 659.106 316.236 653.596 304.092 649.386C299.161 647.677 299.839 640.31 299.839 640.31" stroke="#252D3B" stroke-width="0.57042" stroke-miterlimit="10" stroke-linecap="round"/>
<path d="M256.168 654.977C256.168 654.977 289.411 661.291 316.066 656.999" stroke="#252D3B" stroke-width="0.57042" stroke-miterlimit="10" stroke-linecap="round"/>
<path d="M257.682 646.018L256.148 655.062L268.984 656.922C268.984 656.922 265.53 645.488 257.682 646.018Z" fill="#252D3B"/>
<path d="M370.376 633.992C370.376 633.992 375.288 641.044 382.427 643.997C390.697 647.42 390.127 652.267 390.127 652.267C390.127 652.267 357.78 656.409 333.563 651.047C333.563 651.047 330.941 644.145 326.168 635.578" fill="white"/>
<path d="M370.376 633.992C370.376 633.992 375.288 641.044 382.427 643.997C390.697 647.42 390.127 652.267 390.127 652.267C390.127 652.267 357.78 656.409 333.563 651.047C333.563 651.047 330.941 644.145 326.168 635.578" stroke="#252D3B" stroke-width="0.57042" stroke-miterlimit="10" stroke-linecap="round"/>
<path d="M300.914 533.031H261.345L256.367 590.052L326.337 592.192V558.456C326.338 544.415 314.955 533.031 300.914 533.031Z" fill="#252D3B"/>
<path d="M252.264 464.453H193.232C182.611 464.453 174 473.063 174 483.685V582.499C174 595.581 184.605 606.185 197.686 606.185H275.973C275.973 606.185 271.01 522.757 271.493 483.912C271.627 473.2 262.978 464.453 252.264 464.453Z" fill="#252D3B"/>
<path d="M258.086 461.876C245.984 454.529 236.762 459.348 229.67 458.582C209.821 456.442 194.391 457.187 184.612 487.591C182.994 492.621 179.583 504.495 180.296 508.868C184.215 532.911 213.137 520.124 213.137 520.124C213.137 520.124 197.528 562.43 282.021 532.001C282.021 532.001 273.638 519.881 269.229 502.622C265.429 487.745 271.075 469.761 258.086 461.876Z" fill="white" stroke="#252D3B" stroke-width="0.57042" stroke-miterlimit="10" stroke-linecap="round"/>
<path d="M249.886 482.445C249.886 482.445 253.211 488.01 251.69 494.091C250.169 500.172 246.529 510.988 247.678 517.32" stroke="white" stroke-width="0.57042" stroke-miterlimit="10" stroke-linecap="round"/>
<path d="M237.613 506.407C237.613 506.407 213.051 494.616 200.68 500.554L237.613 506.407Z" fill="white"/>
<path d="M237.613 506.407C237.613 506.407 213.051 494.616 200.68 500.554" stroke="#252D3B" stroke-width="0.57042" stroke-miterlimit="10" stroke-linecap="round"/>
<path d="M213.771 485.414C213.771 485.414 209.492 489.979 207.23 498.765L213.771 485.414Z" fill="white"/>
<path d="M213.771 485.414C213.771 485.414 209.492 489.979 207.23 498.765" stroke="#252D3B" stroke-width="0.57042" stroke-miterlimit="10" stroke-linecap="round"/>
<path d="M237.92 448.296C217.75 458.415 232.517 449.84 227.692 450.805C221.311 452.607 212.289 445.835 215.15 441.952C218.745 437.074 211.427 440.155 213.677 433.667C214.092 432.472 215.559 431.956 215.559 430.632C215.548 427.335 216.94 425.533 220.02 423.285C225.93 418.985 229.934 423.981 229.934 423.981C229.934 423.981 230.413 421.688 234.839 422.133C240.065 422.658 239.938 427.045 242.69 428.584C247.349 431.188 243.901 438.476 238.854 442.009C235.732 444.196 235.98 447.269 237.92 448.296Z" fill="#583100"/>
<path d="M234.378 433.554C237.029 431.872 240.278 431.107 240.797 434.685C241.133 436.993 241.413 437.538 242.284 441.014C244.146 448.449 239.289 453.61 232.253 451.549C225.1 449.453 223.483 446.318 223.745 437.513C223.938 431.048 227.706 433.339 227.706 433.339C227.706 433.339 230.343 436.115 234.378 433.554Z" fill="white"/>
<path d="M239.76 438.076C239.76 438.664 239.523 439.141 239.231 439.141C238.94 439.141 238.703 438.664 238.703 438.076C238.703 437.489 238.939 437.012 239.231 437.012C239.523 437.012 239.76 437.489 239.76 438.076Z" fill="#252D3B"/>
<path d="M232.931 438.777C233.071 439.341 232.958 439.878 232.68 439.979C232.4 440.079 232.06 439.703 231.92 439.139C231.78 438.576 231.891 438.038 232.171 437.938C232.45 437.839 232.79 438.214 232.931 438.777Z" fill="#252D3B"/>
<path d="M237.533 451.737C237.533 451.737 236.877 455.282 239.042 458.302C239.042 458.302 240.793 464.138 239.019 470.21C238.49 472.023 236.245 472.663 234.799 471.447C231.727 468.86 227.07 464.25 225.782 459.188C225.782 459.188 226.01 449.991 224.828 445.199C224.828 445.199 236.745 451.113 237.533 451.737Z" fill="white"/>
<path d="M237.534 451.74C237.534 451.74 234.248 452.416 230.649 450.616C227.05 448.816 232.069 455.73 237.848 455.446C237.848 455.446 237.316 454.189 237.534 451.74Z" fill="#252D3B"/>
<path d="M237.625 434.914C237.625 434.914 239.207 434.796 240.437 435.441C241.668 436.085 238.856 432.57 237.625 434.914Z" fill="#252D3B"/>
<path d="M231.825 436.204C231.825 436.204 230.302 436.79 229.716 437.551C229.129 438.313 229.423 434.212 231.825 436.204Z" fill="#252D3B"/>
<path d="M225.701 442.047C225.701 442.047 223.807 439.996 221.834 440.39C219.862 440.785 221.361 446.703 225.463 445.518C229.567 444.334 225.701 442.047 225.701 442.047Z" fill="white"/>
<path d="M224.276 442.864C224.276 442.864 223.698 441.375 222.25 441.54" stroke="#252D3B" stroke-width="0.57042" stroke-miterlimit="10" stroke-linecap="round"/>
<path d="M223.811 440.412C223.811 440.412 227.81 438.346 227.81 431.386C227.81 424.425 217.594 432.144 223.811 440.412Z" fill="#583100"/>
<path d="M224.906 445.805C224.906 445.805 226.414 453.122 225.595 459.067" stroke="#252D3B" stroke-width="0.57042" stroke-miterlimit="10" stroke-linecap="round"/>
<path d="M237.594 452.086C237.594 453.918 238.437 458.176 239.393 458.928" stroke="#252D3B" stroke-width="0.57042" stroke-miterlimit="10" stroke-linecap="round"/>
<path d="M198.507 655.85H193.723V599.129H205.682L198.507 655.85Z" fill="#252D3B"/>
<path d="M212.145 539.212C212.145 539.212 225.038 533.064 248.063 533.404C262.478 533.618 284.15 539.237 295.546 548.067C304.784 555.225 313.363 565.893 314.028 581.024C314.904 600.974 300.289 641.078 300.289 641.078C300.289 641.078 280.854 644.312 259.541 636.432C259.541 636.432 260.656 602.446 269.274 585.233C270.015 583.752 268.926 582.009 267.269 581.991C253.985 581.853 210.96 580.262 212.145 565.453C213.545 547.947 212.145 539.212 212.145 539.212Z" fill="#1E4AC4"/>
<path d="M250.695 544.996C250.695 544.996 256.972 533.11 282.3 531.777C282.3 531.777 315.843 532.905 340.675 583.987C359.67 619.312 370.375 633.776 370.375 633.776C370.375 633.776 348.971 641.334 325.309 635.002C325.309 635.002 317.676 623.782 308.664 610.057C299.624 596.291 289.195 580.003 283.687 569.99C272.69 549.995 250.695 544.996 250.695 544.996Z" fill="#1E4AC4"/>
<path d="M309.159 611.694C309.159 611.694 320.203 579.789 311.613 562.119C303.023 544.448 264.246 535.367 264.246 535.367" stroke="#252D3B" stroke-width="0.57042" stroke-miterlimit="10" stroke-linecap="round"/>
<path d="M236.27 557.672C236.27 557.672 253.842 571.625 284.105 571.713C286.737 571.721 288.569 574.333 287.696 576.816C283.678 588.253 274.341 616.309 270.748 639.665" stroke="#252D3B" stroke-width="0.57042" stroke-miterlimit="10" stroke-linecap="round"/>
<path d="M313.629 595.27C313.629 595.27 322.83 613.293 340.388 637.153" stroke="#252D3B" stroke-width="0.57042" stroke-miterlimit="10" stroke-linecap="round"/>
<path d="M241.96 439.207C243.162 446.756 241.99 451.867 236.496 452.011" stroke="#252D3B" stroke-width="0.57042" stroke-miterlimit="10" stroke-linecap="round"/>
<path d="M234.568 446.02C234.568 446.02 234.211 447.804 236.709 447.946" stroke="#252D3B" stroke-width="0.57042" stroke-miterlimit="10" stroke-linecap="round"/>
<path d="M231.645 516.721C231.645 516.721 232.107 508.404 237.881 506.325C237.881 506.325 247.072 506.408 254.251 503.956C261.431 501.504 265.283 515.514 265.283 515.514C265.283 515.514 263.475 517.487 259.061 511.715C258.963 511.587 258.76 511.678 258.798 511.835L259.855 516.214" fill="white"/>
<path d="M231.645 516.721C231.645 516.721 232.107 508.404 237.881 506.325C237.881 506.325 247.072 506.408 254.251 503.956C261.431 501.504 265.283 515.514 265.283 515.514C265.283 515.514 263.475 517.487 259.061 511.715C258.963 511.587 258.76 511.678 258.798 511.835L259.855 516.214" stroke="#252D3B" stroke-width="0.57042" stroke-miterlimit="10" stroke-linecap="round"/>
<path d="M250.145 510.277C250.145 510.277 252.883 507.744 254.663 507.401C256.443 507.059 259.058 511.713 259.058 511.713" fill="white"/>
<path d="M250.145 510.277C250.145 510.277 252.883 507.744 254.663 507.401C256.443 507.059 259.058 511.713 259.058 511.713" stroke="#252D3B" stroke-width="0.57042" stroke-miterlimit="10" stroke-linecap="round"/>
<path d="M249.809 512.467C249.809 512.467 255.628 510.14 255.286 514.452L249.809 512.467Z" fill="white"/>
<path d="M249.809 512.467C249.809 512.467 255.628 510.14 255.286 514.452" stroke="#252D3B" stroke-width="0.57042" stroke-miterlimit="10" stroke-linecap="round"/>
<path d="M233.59 486.989C237.491 490.89 243.389 491.317 246.764 487.943C250.139 484.569 249.711 478.671 245.809 474.769C241.907 470.867 236.009 470.441 232.635 473.815C229.261 477.189 229.688 483.087 233.59 486.989Z" fill="#265DF5"/>
<path d="M235.276 476.057C235.276 478.668 232.882 480.786 229.931 480.786C226.978 480.786 224.586 478.668 224.586 476.057C224.586 473.446 226.979 471.328 229.931 471.328C232.882 471.328 235.276 473.446 235.276 476.057Z" fill="white" stroke="#252D3B" stroke-width="0.57042" stroke-miterlimit="10" stroke-linecap="round"/>
<path d="M222.5 458.214C222.5 458.214 226.302 464.965 235.382 463.879C244.462 462.793 240.815 458.059 240.815 458.059" stroke="#252D3B" stroke-width="0.57042" stroke-miterlimit="10" stroke-linecap="round"/>
<path d="M225.114 421.736C219.491 420.932 212.353 424.655 216.013 432.526L225.114 421.736Z" fill="#583100"/>
<path d="M225.114 421.736C219.491 420.932 212.353 424.655 216.013 432.526" stroke="#583100" stroke-width="0.57042" stroke-miterlimit="10" stroke-linecap="round"/>
<path d="M242.266 428.719C242.266 428.719 245.605 430.6 245.676 433.367C245.746 436.133 243.689 437.694 243.689 437.694" fill="#583100"/>
<path d="M242.266 428.719C242.266 428.719 245.605 430.6 245.676 433.367C245.746 436.133 243.689 437.694 243.689 437.694" stroke="#583100" stroke-width="0.57042" stroke-miterlimit="10" stroke-linecap="round"/>
<path d="M332.652 648.633C332.652 648.633 362.327 653.399 389.433 650.011" stroke="#252D3B" stroke-width="0.57042" stroke-miterlimit="10" stroke-linecap="round"/>
<path d="M280.726 514.508H245.8C245.229 514.508 244.766 514.971 244.766 515.543C244.766 516.114 245.229 516.577 245.8 516.577H280.726C281.298 516.577 281.761 516.114 281.761 515.543C281.761 514.972 281.298 514.508 280.726 514.508Z" fill="white" stroke="#252D3B" stroke-width="0.57042" stroke-miterlimit="10" stroke-linecap="round"/>
<path d="M238.174 533.031H198.606L193.629 590.052L263.599 592.192V558.456C263.599 544.415 252.216 533.031 238.174 533.031Z" fill="#252D3B"/>
<path d="M213.149 532.656H192.602" stroke="white" stroke-width="0.57042" stroke-miterlimit="10" stroke-linecap="round"/>
<path d="M263.637 581.902V590.686" stroke="white" stroke-width="0.57042" stroke-miterlimit="10" stroke-linecap="round"/>
<path d="M328.977 640.685C328.977 640.685 343.049 639.498 344.573 650.011L332.572 648.64L329.326 640.783" fill="#252D3B"/>
<path d="M261.265 508.397H356.053C358.529 508.397 360.537 506.39 360.537 503.913L371.103 444.508C371.103 442.031 369.095 440.023 366.618 440.023H271.831C269.354 440.023 267.347 442.031 267.347 444.508L256.781 503.913C256.781 506.39 258.788 508.397 261.265 508.397Z" fill="#252D3B"/>
<path d="M264.27 508.397H359.057C361.533 508.397 363.541 506.39 363.541 503.913L374.106 444.508C374.106 442.031 372.099 440.023 369.622 440.023H274.835C272.358 440.023 270.35 442.031 270.35 444.508L259.785 503.913C259.785 506.39 261.793 508.397 264.27 508.397Z" fill="white" stroke="#252D3B" stroke-width="0.57042" stroke-miterlimit="10" stroke-linecap="round"/>
<path d="M297.384 494.763H333.017C333.948 494.763 334.703 494.008 334.703 493.077L338.676 470.745C338.676 469.814 337.921 469.059 336.99 469.059H301.357C300.426 469.059 299.67 469.814 299.67 470.745L295.699 493.077C295.698 494.008 296.452 494.763 297.384 494.763Z" fill="#D9D9D9"/>
<path d="M301.773 513.403H322.622L329.074 481.467C329.472 479.52 328.651 477.934 326.699 477.934H311.758C309.806 477.934 308.225 479.516 308.225 481.467L301.773 513.403Z" fill="white" stroke="#252D3B" stroke-width="0.57042" stroke-miterlimit="10" stroke-linecap="round"/>
<path d="M326.863 513.141H292.786C291.775 513.141 290.953 513.961 290.953 514.974C290.953 515.986 291.773 516.807 292.786 516.807H326.863C327.875 516.807 328.697 515.987 328.697 514.974C328.697 513.962 327.875 513.141 326.863 513.141Z" fill="#252D3B"/>
<path d="M1132.6 522.461C1132.6 522.461 1137.23 530.516 1136.83 544.208" stroke="#252D3B" stroke-width="0.5" stroke-miterlimit="10" stroke-linecap="round"/>
<path d="M1143.73 523.625C1143.73 523.625 1146.15 531.881 1143.53 541.144" stroke="#252D3B" stroke-width="0.5" stroke-miterlimit="10" stroke-linecap="round"/>
<path d="M1148.16 497.256C1128.39 498.136 1098.96 419.066 1124.87 430.046C1132.31 433.196 1137.39 440.076 1140.86 448.276C1139.1 454.326 1137.6 461.296 1139.44 463.006C1140.57 464.056 1143.54 462.833 1146.32 458.765C1150.45 476.585 1148.16 497.256 1148.16 497.256Z" fill="#B1B1B1"/>
<path d="M1126.96 444.172C1126.96 444.172 1139.55 469.346 1143.42 492.906" stroke="white" stroke-miterlimit="10"/>
<path d="M1135.72 499.074C1135.24 496.93 1116.99 461.452 1095.39 467.587C1073.79 473.723 1139.06 514.031 1135.72 499.074Z" fill="#B1B1B1"/>
<path d="M1105.93 475.52C1105.93 475.52 1123.03 487.284 1130.99 502.723" stroke="white" stroke-miterlimit="10"/>
<path d="M1138.16 442.464C1138.16 442.464 1142.83 428.174 1151.9 435.869C1163.52 445.727 1154.1 485.335 1154.1 485.335" stroke="#252D3B" stroke-width="0.5" stroke-miterlimit="10" stroke-linecap="round"/>
<path d="M1163.35 631C1163.35 631 1163.88 635.061 1165.02 640.447C1166.58 647.821 1166.72 651.649 1166.72 651.649C1166.72 651.649 1130.44 658.046 1107 653.163C1107 653.163 1108.13 647.81 1119.93 643.72C1124.72 642.06 1124.06 634.902 1124.06 634.902" fill="white"/>
<path d="M1163.35 631C1163.35 631 1163.88 635.061 1165.02 640.447C1166.58 647.821 1166.72 651.649 1166.72 651.649C1166.72 651.649 1130.44 658.046 1107 653.163C1107 653.163 1108.13 647.81 1119.93 643.72C1124.72 642.06 1124.06 634.902 1124.06 634.902" stroke="#252D3B" stroke-width="0.554159" stroke-miterlimit="10" stroke-linecap="round"/>
<path d="M1203.5 465.059H1264.68C1275 465.059 1283.36 473.423 1283.36 483.743V579.74C1283.36 592.449 1273.06 602.75 1260.35 602.75H1184.3C1184.3 602.75 1185.29 521.7 1184.82 483.963C1184.69 473.556 1193.09 465.059 1203.5 465.059Z" fill="#252D3B"/>
<path d="M1266.97 473.499C1269.19 477.234 1271.22 481.856 1273.05 487.541C1274.62 492.418 1277.94 503.956 1277.24 508.211C1273.44 531.564 1245.34 519.14 1245.34 519.14C1245.34 519.14 1260.5 560.247 1178.42 530.677C1178.42 530.677 1187.16 525.989 1191.16 516.092L1154.86 514.529C1154.86 514.529 1154.11 508.5 1172.58 503.213C1182.72 500.316 1185.82 497.268 1188.97 489.619C1190.26 486.476 1191.09 483.167 1191.61 479.81C1192.21 475.951 1193.06 472.937 1194.25 470.484" fill="white"/>
<path d="M1266.97 473.499C1269.19 477.234 1271.22 481.856 1273.05 487.541C1274.62 492.418 1277.94 503.956 1277.24 508.211C1273.44 531.564 1245.34 519.14 1245.34 519.14C1245.34 519.14 1260.5 560.247 1178.42 530.677C1178.42 530.677 1187.16 525.989 1191.16 516.092L1154.86 514.529C1154.86 514.529 1154.11 508.5 1172.58 503.213C1182.72 500.316 1185.82 497.268 1188.97 489.619C1190.26 486.476 1191.09 483.167 1191.61 479.81C1192.21 475.951 1193.06 472.937 1194.25 470.484" stroke="#252D3B" stroke-width="0.554159" stroke-miterlimit="10" stroke-linecap="round"/>
<path d="M1209.66 536.288C1209.66 536.288 1197.13 530.316 1174.76 530.646C1160.76 530.853 1139.71 536.312 1128.64 544.891C1119.66 551.845 1111.33 562.209 1110.68 576.908C1109.83 596.289 1124.34 634.125 1124.34 634.125C1124.34 634.125 1142.91 638.392 1163.61 630.737C1163.61 630.737 1162.53 597.719 1154.16 580.997C1153.44 579.558 1154.5 577.865 1156.11 577.848C1169.01 577.713 1210.81 576.168 1209.66 561.781C1208.3 544.774 1209.66 536.288 1209.66 536.288Z" fill="#1E4AC4"/>
<path d="M1163.75 630.602C1163.75 630.602 1164.28 634.662 1165.42 640.049C1166.98 647.423 1167.12 651.251 1167.12 651.251C1167.12 651.251 1130.84 657.648 1107.4 652.765C1107.4 652.765 1108.53 647.411 1120.33 643.322C1125.12 641.661 1124.46 634.504 1124.46 634.504" stroke="#252D3B" stroke-width="0.554159" stroke-miterlimit="10" stroke-linecap="round"/>
<path d="M1166.89 648.754C1166.89 648.754 1134.59 654.888 1108.7 650.719" stroke="#252D3B" stroke-width="0.554159" stroke-miterlimit="10" stroke-linecap="round"/>
<path d="M1209.64 482.539C1209.64 482.539 1206.41 487.945 1207.88 493.853C1209.36 499.76 1212.9 510.268 1211.78 516.419" stroke="white" stroke-width="0.554159" stroke-miterlimit="10" stroke-linecap="round"/>
<path d="M1221.56 505.817C1221.56 505.817 1245.42 494.363 1257.44 500.132L1221.56 505.817Z" fill="white"/>
<path d="M1221.56 505.817C1221.56 505.817 1245.42 494.363 1257.44 500.132" stroke="#252D3B" stroke-width="0.554159" stroke-miterlimit="10" stroke-linecap="round"/>
<path d="M1244.73 485.422C1244.73 485.422 1248.88 489.856 1251.08 498.393L1244.73 485.422Z" fill="white"/>
<path d="M1244.73 485.422C1244.73 485.422 1248.88 489.856 1251.08 498.393" stroke="#252D3B" stroke-width="0.554159" stroke-miterlimit="10" stroke-linecap="round"/>
<path d="M1259.55 651.003H1264.2V595.898H1252.58L1259.55 651.003Z" fill="#252D3B"/>
<path d="M1227.36 515.837C1227.36 515.837 1226.91 507.757 1221.3 505.738C1221.3 505.738 1212.37 505.818 1205.39 503.436C1198.42 501.054 1194.68 514.664 1194.68 514.664C1194.68 514.664 1196.43 516.582 1200.72 510.974C1200.82 510.85 1201.01 510.938 1200.98 511.09L1199.95 515.345" fill="#FEDBB0"/>
<path d="M1209.38 509.576C1209.38 509.576 1206.72 507.115 1204.99 506.782C1203.26 506.449 1198.93 513.008 1198.93 513.008" stroke="#252D3B" stroke-width="0.554159" stroke-miterlimit="10" stroke-linecap="round"/>
<path d="M1209.72 511.707C1209.72 511.707 1204.06 509.446 1204.4 513.635" stroke="#252D3B" stroke-width="0.554159" stroke-miterlimit="10" stroke-linecap="round"/>
<path d="M1200.4 632C1200.4 632 1200.93 636.061 1202.07 641.447C1203.63 648.821 1203.77 652.649 1203.77 652.649C1203.77 652.649 1167.49 659.046 1144.05 654.163C1144.05 654.163 1145.18 648.81 1156.98 644.72C1161.77 643.06 1161.11 635.902 1161.11 635.902" fill="white"/>
<path d="M1200.4 632C1200.4 632 1200.93 636.061 1202.07 641.447C1203.63 648.821 1203.77 652.649 1203.77 652.649C1203.77 652.649 1167.49 659.046 1144.05 654.163C1144.05 654.163 1145.18 648.81 1156.98 644.72C1161.77 643.06 1161.11 635.902 1161.11 635.902" stroke="#252D3B" stroke-width="0.554159" stroke-miterlimit="10" stroke-linecap="round"/>
<path d="M1246.31 537.691C1246.31 537.691 1233.78 531.718 1211.41 532.048C1197.41 532.256 1176.35 537.715 1165.28 546.294C1156.31 553.247 1147.98 563.611 1147.33 578.311C1146.48 597.692 1160.98 635.528 1160.98 635.528C1160.98 635.528 1179.56 639.795 1200.26 632.139C1200.26 632.139 1199.18 599.122 1190.81 582.399C1190.09 580.961 1191.15 579.267 1192.75 579.251C1205.66 579.116 1247.46 577.57 1246.31 563.183C1244.95 546.176 1246.31 537.691 1246.31 537.691Z" fill="#1E4AC4"/>
<path d="M1159.43 632.298C1159.43 632.298 1133.88 580.543 1147 558.932C1159.25 538.746 1198.2 533.203 1198.2 533.203" stroke="#252D3B" stroke-width="0.554159" stroke-miterlimit="10" stroke-linecap="round"/>
<path d="M1222.87 555.621C1222.87 555.621 1207.88 567.523 1181.8 569.093C1176.58 569.407 1173.07 574.582 1174.74 579.545C1179.16 592.599 1186.35 615.648 1189.37 635.277" stroke="#252D3B" stroke-width="0.554159" stroke-miterlimit="10" stroke-linecap="round"/>
<path d="M1203.54 650.152C1203.54 650.152 1171.25 656.287 1145.35 652.117" stroke="#252D3B" stroke-width="0.554159" stroke-miterlimit="10" stroke-linecap="round"/>
<path d="M1230.36 529.18H1266.89V592.787H1213.36V546.171C1213.36 536.787 1220.97 529.18 1230.36 529.18Z" fill="#252D3B"/>
<path d="M1139.53 634.149C1139.97 621.809 1121.48 626.468 1121.48 626.468C1121.48 626.468 1122.35 630.567 1123.35 634.289C1124.51 638.623 1124.76 641.327 1120.33 643.321C1120.33 643.321 1138.91 651.594 1139.53 634.149Z" fill="#252D3B"/>
<path d="M1138.16 643.403C1137.91 643.403 1131.18 637.964 1122.88 638.877" stroke="white" stroke-width="1.10832" stroke-miterlimit="10"/>
<path d="M1120.95 642.219C1120.95 642.219 1128.39 641.051 1133.7 645.732" stroke="white" stroke-width="1.10832" stroke-miterlimit="10"/>
<path d="M1155.67 645.168C1155.67 645.168 1161.6 649.403 1167.77 646.378C1173.94 643.354 1174.3 631.616 1170.67 628.833C1167.04 626.05 1157.36 627.381 1157.36 627.381C1157.36 627.381 1159.67 636.761 1159.94 641.083C1160.09 643.375 1155.67 645.168 1155.67 645.168Z" fill="#252D3B"/>
<path d="M1172.07 645.686C1172.07 645.686 1165.67 640.753 1159.5 641.223" stroke="white" stroke-width="1.10832" stroke-miterlimit="10"/>
<path d="M1169.12 648.327C1169.12 648.327 1162.71 643.394 1156.55 643.864" stroke="white" stroke-width="1.10832" stroke-miterlimit="10"/>
<path d="M1203.18 483C1203.18 483 1199.34 506.34 1190.46 514.179" stroke="#252D3B" stroke-width="0.554159" stroke-miterlimit="10" stroke-linecap="round"/>
<path d="M1266.97 473.502C1266.93 473.524 1266.91 473.535 1266.91 473.535C1223.69 477.425 1194.18 471.019 1194.18 471.019C1194.21 470.842 1194.23 470.664 1194.25 470.487C1195.96 466.929 1198.36 464.569 1201.68 462.551C1213.42 455.414 1222.39 460.102 1229.27 459.359C1244.84 457.675 1257.62 457.83 1266.97 473.502Z" fill="white"/>
<path d="M1210.37 433.615C1206.9 434.918 1202.84 433.81 1204 437.909C1204.74 440.555 1204.7 441.275 1205.43 445.433C1206.99 454.328 1214.69 457.555 1221.28 451.964C1227.97 446.279 1228.21 442.129 1223.71 432.779C1220.4 425.913 1217.44 430.184 1217.44 430.184C1217.44 430.184 1214.68 431.993 1210.37 433.615Z" fill="#FEDBB0"/>
<path d="M1206.12 441.598C1206.4 442.231 1206.89 442.631 1207.2 442.492C1207.51 442.352 1207.54 441.726 1207.26 441.093C1206.98 440.46 1206.49 440.06 1206.18 440.2C1205.87 440.338 1205.84 440.964 1206.12 441.598Z" fill="#252D3B"/>
<path d="M1212.94 439.519C1213.06 440.193 1213.44 440.717 1213.79 440.691C1214.14 440.665 1214.32 440.097 1214.2 439.424C1214.08 438.75 1213.71 438.225 1213.36 438.251C1213.01 438.277 1212.82 438.845 1212.94 439.519Z" fill="#252D3B"/>
<path d="M1215.69 454.7C1215.69 454.7 1217.34 457.109 1217.4 460.379C1217.46 463.347 1219.63 465.896 1222.59 466.154C1222.64 466.159 1222.69 466.163 1222.75 466.168C1225.75 466.393 1234.1 465.02 1233.06 458.954C1233.06 458.954 1227.25 447.298 1226.23 441.574C1226.23 441.574 1216.24 453.652 1215.69 454.7Z" fill="#FEDBB0"/>
<path d="M1215.69 454.699C1215.69 454.699 1219.55 453.852 1222.56 450.19C1225.57 446.528 1223.48 456.376 1217.13 458.839C1217.13 458.839 1217.1 457.231 1215.69 454.699Z" fill="#252D3B"/>
<path d="M1211.43 436.915C1211.43 436.915 1215.92 436.338 1216.45 435.687C1217.16 434.805 1210.89 432.067 1211.43 436.915Z" fill="#252D3B"/>
<path d="M1207.99 437.952C1207.99 437.952 1203.9 439.9 1203.1 439.638C1202.03 439.282 1205.82 433.586 1207.99 437.952Z" fill="#252D3B"/>
<path d="M1223.78 438.59C1223.78 438.59 1224.83 435.474 1227.15 434.953C1229.46 434.432 1230.68 441.52 1225.7 442.213C1220.72 442.906 1223.78 438.59 1223.78 438.59Z" fill="#FEDBB0"/>
<path d="M1225.7 438.794C1225.7 438.794 1225.61 436.914 1227.25 436.398" stroke="#252D3B" stroke-width="0.554159" stroke-miterlimit="10" stroke-linecap="round"/>
<path d="M1226.44 442.262C1226.44 442.262 1229.5 453.396 1233.23 459.401" stroke="#252D3B" stroke-width="0.554159" stroke-miterlimit="10" stroke-linecap="round"/>
<path d="M1204.92 443.34C1207.24 452.041 1210.95 456.981 1216.94 454.501" stroke="#252D3B" stroke-width="0.554159" stroke-miterlimit="10" stroke-linecap="round"/>
<path d="M1215.81 448.848C1215.81 448.848 1213.76 450.748 1212.35 449.976" stroke="#252D3B" stroke-width="0.554159" stroke-miterlimit="10" stroke-linecap="round"/>
<path d="M1219.94 427.976C1219.94 427.976 1210.6 437.663 1199.74 436.264L1201.65 434.472L1198.94 432.619C1198.94 432.619 1201.4 432.585 1204.42 430.651C1207.44 428.717 1213.88 423.615 1219.21 425.826C1224.55 428.038 1219.94 427.976 1219.94 427.976Z" fill="#252D3B"/>
<path d="M1217.65 429.204C1217.65 429.204 1219.36 433.202 1221.82 433.856C1224.28 434.51 1224.57 436.898 1224.57 436.898C1224.57 436.898 1225.68 435.288 1226.58 434.955C1226.58 434.955 1225.24 423.304 1217.97 425.211L1217.65 429.204Z" fill="#252D3B"/>
<path d="M1246.04 529.559H1262.35" stroke="white" stroke-width="0.554159" stroke-miterlimit="10" stroke-linecap="round"/>
<path d="M1213.54 578.094V587.033" stroke="white" stroke-width="0.554159" stroke-miterlimit="10" stroke-linecap="round"/>
<path d="M1227.36 515.398H1213.39" stroke="#252D3B" stroke-width="0.554159" stroke-miterlimit="10" stroke-linecap="round"/>
<path d="M1199.25 505.43C1199.25 505.43 1197.04 502.728 1194.02 503.417C1191.01 504.107 1188.05 509.222 1188.91 509.481C1189.53 509.667 1191.8 508.251 1193.03 507.438C1193.52 507.114 1194.15 507.131 1194.63 507.48L1196.75 509.05L1199.25 505.43Z" fill="#FEDBB0" stroke="#252D3B" stroke-width="0.554159" stroke-miterlimit="10" stroke-linecap="round"/>
<path d="M1200.29 504.43C1200.29 504.43 1196.46 508.445 1195.04 513.465L1200.29 504.43Z" fill="#FFF4E6"/>
<path d="M1200.29 504.43C1200.29 504.43 1196.46 508.445 1195.04 513.465" stroke="#252D3B" stroke-width="0.554159" stroke-miterlimit="10" stroke-linecap="round"/>
<path d="M1163.59 513.138H1113.46C1112.66 513.138 1111.98 512.54 1111.88 511.743L1108.01 480.79C1107.89 479.839 1108.63 479 1109.59 479H1159.72C1160.53 479 1161.21 479.598 1161.31 480.395L1165.17 511.348C1165.29 512.298 1164.55 513.138 1163.59 513.138Z" fill="#252D3B"/>
<path d="M1137.97 498.572C1137.32 499.5 1135.64 499.446 1134.23 498.45C1132.81 497.455 1132.19 495.895 1132.84 494.967C1133.49 494.039 1135.17 494.093 1136.59 495.089C1138 496.084 1138.62 497.644 1137.97 498.572Z" fill="#252D3B" stroke="white" stroke-miterlimit="10"/>
<path d="M1154.75 510.863H1193.79C1194.43 510.863 1194.95 511.381 1194.95 512.02C1194.95 512.659 1194.43 513.177 1193.79 513.177H1154.75C1154.11 513.177 1153.59 512.659 1153.59 512.02C1153.59 511.381 1154.11 510.863 1154.75 510.863Z" fill="#252D3B"/>
<path d="M136.46 520.059H132V644.733H136.46V520.059Z" fill="#252D3B"/>
<path d="M1341.94 523H109.059C101.845 523 96 520.985 96 518.5C96 516.014 101.848 514 109.059 514H1341.94C1349.15 514 1355 516.015 1355 518.5C1355 520.986 1349.15 523 1341.94 523Z" fill="#0C0C0C"/>
<path d="M1312 523H1308V648H1312V523Z" fill="#252D3B"/>
<path d="M1384.29 581.797C1360.4 600.907 1361.99 625.427 1361.99 625.427C1359.44 627.617 1357.24 629.027 1355.36 629.847C1354.69 619.787 1355.28 602.827 1363.8 586.757C1367.65 579.497 1373.22 568.087 1377.61 558.937C1376.77 562.337 1377.62 559.009 1377.62 559.009C1388.13 553.599 1408.18 562.687 1384.29 581.797Z" fill="#B1B1B1"/>
<path d="M1379.67 546.333C1379.25 552.929 1377.42 559.355 1374.53 565.303C1370.82 572.954 1366.79 581.111 1363.79 586.757C1355.27 602.827 1354.68 619.787 1355.35 629.847C1353.8 630.527 1352.47 630.807 1351.31 630.807C1348.57 630.807 1346.84 629.217 1345.77 627.477C1344.46 625.357 1344.13 623.007 1344.13 623.007C1330.74 586.507 1340.01 532.437 1364.85 528.297C1377.9 526.124 1380.32 536.236 1379.67 546.333Z" fill="white" stroke="#252D3B" stroke-width="0.5" stroke-miterlimit="10" stroke-linecap="round"/>
<path d="M1377.82 533.086C1377.82 533.086 1367.43 542.455 1371 545.843C1373.47 548.18 1379.68 542.487 1379.68 542.487" stroke="#252D3B" stroke-width="0.5" stroke-miterlimit="10" stroke-linecap="round"/>
<path d="M1338 589.284C1338 589.284 1341.44 593.561 1343.21 591.454C1345.24 589.045 1338.5 577.473 1338.5 577.473" stroke="#252D3B" stroke-width="0.5" stroke-miterlimit="10" stroke-linecap="round"/>
<path d="M1364.07 539.832C1364.07 539.832 1342.16 581.121 1349.74 623.814" stroke="#252D3B" stroke-width="0.5" stroke-miterlimit="10" stroke-linecap="round"/>
<path d="M1368.72 645.028H1339.97V627.175C1339.97 624.874 1341.84 623.008 1344.14 623.008H1364.55C1366.86 623.008 1368.72 624.874 1368.72 627.175V645.028Z" fill="white" stroke="#252D3B" stroke-width="0.5" stroke-miterlimit="10" stroke-linecap="round"/>
<path d="M94.9961 576C94.9961 576 108.435 563.983 119.232 572.357C132.732 582.826 103.259 600.736 105.496 625" fill="white"/>
<path d="M94.9961 576C94.9961 576 108.435 563.983 119.232 572.357C132.732 582.826 103.259 600.736 105.496 625" stroke="#252D3B" stroke-width="0.5" stroke-miterlimit="10" stroke-linecap="round"/>
<path d="M70.3186 574.946C70.3186 574.946 62.8636 570.473 59.0536 576.603C55.2436 582.732 56.4026 596.648 65.3486 600.624C74.2946 604.6 69.8216 612.883 77.4416 615.534C85.0626 618.185 89.3696 621.664 88.5406 624.645C87.7116 627.626 96.4926 625.97 96.4926 625.97C96.4926 625.97 91.1916 585.879 70.3186 574.946Z" fill="#747474"/>
<path d="M95.1618 627.371C92.0668 629.507 94.5458 619.363 87.1308 614.056C84.3128 612.039 80.8628 609.568 81.1718 602.758C81.7908 589.138 68.7898 592.234 69.4098 582.328C70.0288 572.423 76.2198 566.851 65.6948 555.088C55.1708 543.325 64.8208 530.223 80.2348 538.712C93.4488 545.989 99.1788 559.686 96.6488 577.375C94.8018 590.292 109.208 617.68 95.1618 627.371Z" fill="white" stroke="#252D3B" stroke-width="0.5" stroke-miterlimit="10" stroke-linecap="round"/>
<path d="M86.8516 573.453C86.8516 573.453 90.3666 578.858 87.9206 587.09C85.4746 595.322 102.326 608.432 94.4186 629.608" stroke="#252D3B" stroke-width="0.5" stroke-miterlimit="10" stroke-linecap="round"/>
<path d="M113.322 644.497H84.5742V627.033C84.5742 624.517 86.6142 622.477 89.1302 622.477H108.766C111.282 622.477 113.322 624.517 113.322 627.033V644.497Z" fill="white" stroke="#252D3B" stroke-width="0.5" stroke-miterlimit="10" stroke-linecap="round"/>
<path d="M1087.49 513.579C1092.74 513.579 1096.99 509.328 1096.99 504.084V493.557C1096.99 492.697 1096.29 492 1095.43 492H1079.56C1078.7 492 1078 492.697 1078 493.557V504.084C1078 509.328 1082.25 513.579 1087.49 513.579Z" fill="#252D3B"/>
<path d="M1097.85 508.325C1094.32 508.325 1091.45 505.455 1091.45 501.928C1091.45 498.401 1094.32 495.531 1097.85 495.531C1101.38 495.531 1104.25 498.401 1104.25 501.928C1104.25 505.454 1101.38 508.325 1097.85 508.325ZM1097.85 498.53C1095.98 498.53 1094.45 500.054 1094.45 501.927C1094.45 503.8 1095.98 505.324 1097.85 505.324C1099.72 505.324 1101.25 503.8 1101.25 501.927C1101.25 500.054 1099.72 498.53 1097.85 498.53Z" fill="#252D3B"/>
<path d="M1084.27 502.668C1084.27 504.799 1085.67 506.526 1087.4 506.526C1089.13 506.526 1090.53 504.798 1090.53 502.668C1090.53 500.537 1089.13 498.809 1087.4 498.809C1085.67 498.809 1084.27 500.537 1084.27 502.668Z" fill="white"/>
<path d="M1333.33 333.051H1322.06V387.508H1333.33V333.051Z" fill="#BCCDFC"/>
<path d="M1389.12 333.051H1377.85V387.508H1389.12V333.051Z" fill="#BCCDFC"/>
<path d="M1354.01 347.528L1345.79 349.438L1354.72 387.859L1362.94 385.95L1354.01 347.528Z" fill="#BCCDFC"/>
<path d="M1377.97 348.701L1372.39 347.934L1367.02 387.014L1372.6 387.781L1377.97 348.701Z" fill="white" stroke="#252D3B" stroke-width="0.639926" stroke-miterlimit="10" stroke-linecap="round"/>
<path d="M1341.88 333.001L1333.67 334.91L1346 387.952L1354.21 386.042L1341.88 333.001Z" fill="white" stroke="#252D3B" stroke-width="0.639926" stroke-miterlimit="10" stroke-linecap="round"/>
<path d="M1392.97 387.945H1313" stroke="#252D3B" stroke-width="0.639926" stroke-miterlimit="10" stroke-linecap="round"/>
<path d="M112.353 385.641H101.09V440.08H112.353V385.641Z" fill="#BCCDFC"/>
<path d="M133.032 400.091L124.82 402L133.748 440.409L141.96 438.5L133.032 400.091Z" fill="#BCCDFC"/>
<path d="M141.9 400.091L133.688 402L142.615 440.409L150.828 438.5L141.9 400.091Z" fill="white" stroke="#252D3B" stroke-width="0.639712" stroke-miterlimit="10" stroke-linecap="round"/>
<path d="M120.915 385.568L112.703 387.477L125.028 440.501L133.24 438.592L120.915 385.568Z" fill="white" stroke="#252D3B" stroke-width="0.639712" stroke-miterlimit="10" stroke-linecap="round"/>
<path d="M171.97 440.516H92.0312" stroke="#252D3B" stroke-width="0.639712" stroke-miterlimit="10" stroke-linecap="round"/>
</g>
<defs>
<filter id="filter0_f_1597_3915" x="-288.739" y="-273.595" width="1419.82" height="1419.82" filterUnits="userSpaceOnUse" color-interpolation-filters="sRGB">
<feFlood flood-opacity="0" result="BackgroundImageFix"/>
<feBlend mode="normal" in="SourceGraphic" in2="BackgroundImageFix" result="shape"/>
<feGaussianBlur stdDeviation="276.725" result="effect1_foregroundBlur_1597_3915"/>
</filter>
<filter id="filter1_f_1597_3915" x="298.698" y="-396.985" width="1386.09" height="1386.09" filterUnits="userSpaceOnUse" color-interpolation-filters="sRGB">
<feFlood flood-opacity="0" result="BackgroundImageFix"/>
<feBlend mode="normal" in="SourceGraphic" in2="BackgroundImageFix" result="shape"/>
<feGaussianBlur stdDeviation="276.725" result="effect1_foregroundBlur_1597_3915"/>
</filter>
<filter id="filter2_f_1597_3915" x="-292.45" y="-203.489" width="1388.47" height="1388.47" filterUnits="userSpaceOnUse" color-interpolation-filters="sRGB">
<feFlood flood-opacity="0" result="BackgroundImageFix"/>
<feBlend mode="normal" in="SourceGraphic" in2="BackgroundImageFix" result="shape"/>
<feGaussianBlur stdDeviation="276.725" result="effect1_foregroundBlur_1597_3915"/>
</filter>
<filter id="filter3_f_1597_3915" x="383.323" y="-329.466" width="1358.12" height="1358.12" filterUnits="userSpaceOnUse" color-interpolation-filters="sRGB">
<feFlood flood-opacity="0" result="BackgroundImageFix"/>
<feBlend mode="normal" in="SourceGraphic" in2="BackgroundImageFix" result="shape"/>
<feGaussianBlur stdDeviation="276.725" result="effect1_foregroundBlur_1597_3915"/>
</filter>
<clipPath id="clip0_1597_3915">
<rect width="1440" height="720" fill="white"/>
</clipPath>
</defs>
</svg>
