<svg width="64" height="64" viewBox="0 0 64 64" fill="none" xmlns="http://www.w3.org/2000/svg">
<circle opacity="0.7" cx="32" cy="32" r="32" fill="white"/>
<g clip-path="url(#clip0_1597_4982)">
<path d="M32.0004 40.534C32.884 40.534 33.6004 39.8176 33.6004 38.934C33.6004 38.0503 32.884 37.334 32.0004 37.334C31.1167 37.334 30.4004 38.0503 30.4004 38.934C30.4004 39.8176 31.1167 40.534 32.0004 40.534Z" fill="#646464"/>
<path d="M32.001 34.1329V33.0663C34.357 33.0663 36.2677 31.3943 36.2677 29.3329C36.2677 27.2716 34.357 25.5996 32.001 25.5996C29.645 25.5996 27.7344 27.2716 27.7344 29.3329V29.8663" stroke="#646464" stroke-width="2.13333" stroke-linecap="round" stroke-linejoin="round"/>
<path d="M32.0012 44.7992C39.0704 44.7992 44.8012 39.0685 44.8012 31.9992C44.8012 24.93 39.0704 19.1992 32.0012 19.1992C24.9319 19.1992 19.2012 24.93 19.2012 31.9992C19.2012 39.0685 24.9319 44.7992 32.0012 44.7992Z" stroke="#646464" stroke-width="2.13333" stroke-linecap="round" stroke-linejoin="round"/>
</g>
<defs>
<clipPath id="clip0_1597_4982">
<rect width="34.1333" height="34.1333" fill="white" transform="translate(14.9336 14.9336)"/>
</clipPath>
</defs>
</svg>
