<svg width="74" height="73" viewBox="0 0 74 73" fill="none" xmlns="http://www.w3.org/2000/svg">
<path opacity="0.3" d="M70.8236 36.4996C70.8236 55.8793 55.2289 71.5833 35.9997 71.5833C16.7704 71.5833 1.17578 55.8793 1.17578 36.4996C1.17578 17.12 16.7704 1.41602 35.9997 1.41602C55.2289 1.41602 70.8236 17.12 70.8236 36.4996Z" stroke="#34C759"/>
<path d="M55.8977 36.4992C55.8977 47.5755 46.9852 56.5483 35.9987 56.5483C25.0122 56.5483 16.0996 47.5755 16.0996 36.4992C16.0996 25.423 25.0122 16.4502 35.9987 16.4502C46.9852 16.4502 55.8977 25.423 55.8977 36.4992Z" fill="#FFFAEA" stroke="#34C759"/>
<path d="M53.6337 36.5C53.6337 46.3156 45.7356 54.2665 36.0004 54.2665C26.2653 54.2665 18.3672 46.3156 18.3672 36.5C18.3672 26.6843 26.2653 18.7334 36.0004 18.7334C45.7356 18.7334 53.6337 26.6843 53.6337 36.5Z" fill="#34C759" stroke="#34C759"/>
<path d="M7.29896 2.38867L8.73506 5.67787L12.0003 7.12454L8.73506 8.5712L7.29896 11.8604L5.86285 8.5712L2.59766 7.12454L5.86285 5.67787L7.29896 2.38867Z" fill="#34C759"/>
<path d="M68.0207 57.0488L69.7148 60.9291L73.5667 62.6357L69.7148 64.3423L68.0207 68.2225L66.3265 64.3423L62.4746 62.6357L66.3265 60.9291L68.0207 57.0488Z" fill="#34C759"/>
<path d="M32.3223 43.8796L25.6387 37.4289C25.2447 37.0486 25.2298 36.4221 25.6053 36.0236L26.9358 34.6114C27.3198 34.2038 27.9637 34.191 28.3636 34.583L32.3124 38.4534C32.6971 38.8304 33.3112 38.8351 33.7015 38.4639L43.4861 29.1598C43.8895 28.7762 44.5285 28.7959 44.9075 29.2036L46.3887 30.7968C46.7655 31.2021 46.7415 31.8364 46.335 32.212L33.6955 43.8944C33.3062 44.2542 32.7037 44.2477 32.3223 43.8796Z" fill="white"/>
</svg>
