<svg width="128" height="123" viewBox="0 0 128 123" fill="none" xmlns="http://www.w3.org/2000/svg">
<path opacity="0.3" d="M112.799 61.4996C112.799 88.3822 90.952 110.177 64.0003 110.177C37.0487 110.177 15.2021 88.3822 15.2021 61.4996C15.2021 34.617 37.0487 12.8223 64.0003 12.8223C90.952 12.8223 112.799 34.617 112.799 61.4996Z" stroke="#FB8C00"/>
<path d="M91.9693 61.4998C91.9693 76.907 79.4483 89.3991 64.0003 89.3991C48.5522 89.3991 36.0312 76.907 36.0312 61.4998C36.0312 46.0927 48.5522 33.6006 64.0003 33.6006C79.4483 33.6006 91.9693 46.0927 91.9693 61.4998Z" fill="#FFEFBD" stroke="#FB8C00"/>
<path d="M88.807 61.4997C88.807 75.1647 77.7018 86.2445 64.0002 86.2445C50.2986 86.2445 39.1934 75.1647 39.1934 61.4997C39.1934 47.8347 50.2986 36.7549 64.0002 36.7549C77.7018 36.7549 88.807 47.8347 88.807 61.4997Z" fill="#FB8C00" stroke="#FB8C00"/>
<path d="M66.7877 48.4453L65.0585 65.7373H62.6376L60.9084 48.4453H66.7877ZM61.8767 68.1928C62.4762 67.5934 63.1909 67.2936 64.0209 67.2936C64.874 67.2936 65.6003 67.5934 66.1997 68.1928C66.7992 68.7923 67.0989 69.5185 67.0989 70.3716C67.0989 71.2016 66.7992 71.9164 66.1997 72.5158C65.6003 73.1153 64.874 73.415 64.0209 73.415C63.1909 73.415 62.4762 73.1153 61.8767 72.5158C61.2773 71.9164 60.9775 71.2016 60.9775 70.3716C60.9775 69.5185 61.2773 68.7923 61.8767 68.1928Z" fill="white"/>
</svg>
