<svg width="50" height="48" viewBox="0 0 50 48" fill="none" xmlns="http://www.w3.org/2000/svg">
<path opacity="0.3" d="M47.9742 24.0046C47.9742 37.0695 37.461 47.6565 24.4975 47.6565C11.5339 47.6565 1.02067 37.0695 1.02067 24.0046C1.02067 10.9397 11.5339 0.352704 24.4975 0.352704C37.461 0.352704 47.9742 10.9397 47.9742 24.0046Z" stroke="#34C759" stroke-width="0.674157"/>
<path d="M37.9134 24.0056C37.9134 31.4728 31.9049 37.5219 24.4983 37.5219C17.0916 37.5219 11.0832 31.4728 11.0832 24.0056C11.0832 16.5385 17.0916 10.4894 24.4983 10.4894C31.9049 10.4894 37.9134 16.5385 37.9134 24.0056Z" fill="#FFFAEA" stroke="#34C759" stroke-width="0.674157"/>
<path d="M36.3818 24.0059C36.3818 30.6233 31.0572 35.9834 24.4942 35.9834C17.9312 35.9834 12.6066 30.6233 12.6066 24.0059C12.6066 17.3886 17.9312 12.0285 24.4942 12.0285C31.0572 12.0285 36.3818 17.3886 36.3818 24.0059Z" fill="#34C759" stroke="#34C759" stroke-width="0.674157"/>
<path d="M5.14988 1.00781L6.11805 3.22525L8.3193 4.20053L6.11805 5.17581L5.14988 7.39325L4.18172 5.17581L1.98047 4.20053L4.18172 3.22525L5.14988 1.00781Z" fill="#34C759"/>
<path d="M46.0866 37.8594L47.2287 40.4753L49.8255 41.6258L47.2287 42.7763L46.0866 45.3922L44.9445 42.7763L42.3477 41.6258L44.9445 40.4753L46.0866 37.8594Z" fill="#34C759"/>
<path d="M22.0202 28.9792L17.5144 24.6304C17.2488 24.374 17.2388 23.9517 17.4919 23.683L18.3889 22.731C18.6478 22.4562 19.0818 22.4476 19.3515 22.7119L22.0136 25.3211C22.2729 25.5753 22.6869 25.5784 22.95 25.3282L29.5464 19.0558C29.8184 18.7971 30.2492 18.8104 30.5047 19.0853L31.5032 20.1593C31.7572 20.4326 31.741 20.8602 31.467 21.1134L22.946 28.9892C22.6835 29.2318 22.2774 29.2274 22.0202 28.9792Z" fill="white"/>
</svg>
