<svg width="149" height="119" viewBox="0 0 149 119" fill="none" xmlns="http://www.w3.org/2000/svg">
<path d="M66.196 111.995C66.196 115.731 69.225 118.76 72.961 118.76C76.697 118.76 79.726 115.731 79.726 111.995C79.726 108.259 76.697 105.23 72.961 105.23C69.225 105.231 66.196 108.259 66.196 111.995Z" fill="white" stroke="#252D3B" stroke-width="0.5" stroke-miterlimit="10" stroke-linecap="round"/>
<path d="M73 105L73 -119" stroke="#252D3B" stroke-width="0.5" stroke-miterlimit="10" stroke-linecap="round"/>
<path d="M76.2979 65.751H70.0179C68.3009 65.751 66.9089 67.143 66.9089 68.86V97.506C66.9089 99.223 68.3009 100.615 70.0179 100.615H76.2979C78.0149 100.615 79.4069 99.223 79.4069 97.506V68.861C79.4069 67.143 78.0149 65.751 76.2979 65.751Z" fill="white" stroke="#252D3B" stroke-width="0.5" stroke-miterlimit="10" stroke-linecap="round"/>
<path d="M148.386 112.019H0C4.865 105.159 36.22 96.0898 74.184 96.0898C112.149 96.0898 143.521 105.159 148.386 112.019Z" fill="#252D3B"/>
</svg>
