<svg width="251" height="164" viewBox="0 0 251 164" fill="none" xmlns="http://www.w3.org/2000/svg">
<g clip-path="url(#clip0_593_1286)">
<rect width="250.695" height="164" rx="12" fill="#FEEED9"/>
<g opacity="0.2">
<path d="M472.863 144.469C466.307 159.272 452.605 170.694 438.935 170.73C412.494 170.8 380.544 88.6765 296.662 88.8981C245.456 89.0334 217.173 132.548 136.431 132.761C52.0891 132.984 -25.118 39.7553 -147.98 40.0799C-198.563 40.2135 -244.745 60.9311 -276.84 119" stroke="#D47800" stroke-width="0.345044" stroke-miterlimit="10"/>
<path d="M472.369 145.074C466.067 160.235 452.166 172.061 437.857 172.099C410.533 172.171 382.175 96.5636 308.865 87.8319C303.651 87.2308 298.331 86.9937 292.874 87.1522C245.149 88.4806 221.302 130.14 152.092 138.12C146.544 138.777 140.725 139.105 134.625 139.122C48.1096 139.35 -25.4708 40.1698 -148.004 40.4935C-194.19 40.6155 -232.288 63.9582 -265.397 107.576C-269.18 112.56 -272.869 117.769 -276.347 123.297" stroke="#D47800" stroke-width="0.345044" stroke-miterlimit="10"/>
<path d="M471.876 145.671C465.828 161.191 451.727 173.421 436.778 173.46C406.863 173.539 379.729 93.9403 305.471 85.8177C300.034 85.2226 294.587 85.097 289.085 85.3998C241.064 87.9327 221.106 133.719 150.698 144.192C145.02 145.036 139.058 145.458 132.818 145.475C44.1277 145.709 -25.8248 40.5778 -148.029 40.9007C-194.99 41.0248 -229.334 71.0007 -264.229 112.801C-268.232 117.596 -272.179 122.468 -275.856 127.586" stroke="#D47800" stroke-width="0.345044" stroke-miterlimit="10"/>
<path d="M471.398 146.275C465.604 162.153 451.303 174.788 435.716 174.829C403.212 174.915 377.282 91.4785 302.093 83.8112C296.434 83.2346 290.862 83.2082 285.314 83.6538C236.996 87.3898 220.934 137.424 149.324 150.272C143.516 151.314 137.411 151.82 131.032 151.837C40.1677 152.077 -26.1581 40.9937 -148.034 41.3157C-195.768 41.4418 -226.374 78.0498 -263.04 118.034C-267.264 122.64 -271.47 127.175 -275.344 131.883" stroke="#D47800" stroke-width="0.345044" stroke-miterlimit="10"/>
<path d="M470.904 146.88C465.364 163.116 450.864 176.155 434.636 176.198C399.542 176.29 374.816 89.0346 298.698 81.8048C292.815 81.2452 287.119 81.3179 281.525 81.9091C232.909 86.8484 220.745 141.141 147.93 156.352C141.993 157.592 135.743 158.181 129.225 158.198C36.1856 158.444 -26.5122 41.4095 -148.06 41.7307C-196.568 41.8589 -223.448 85.099 -261.872 123.267C-266.319 127.684 -270.781 131.882 -274.852 136.181" stroke="#D47800" stroke-width="0.345044" stroke-miterlimit="10"/>
<path d="M470.418 147.478C465.131 164.072 450.433 177.514 433.566 177.558C395.883 177.658 372.358 86.5964 295.312 79.7904C289.206 79.2506 283.386 79.4348 277.746 80.1552C228.844 86.4088 220.563 144.862 146.547 162.424C140.481 163.863 134.086 164.534 127.429 164.551C32.2151 164.803 -26.8547 41.8162 -148.075 42.1365C-197.357 42.2667 -220.524 92.1324 -260.693 128.492C-265.364 132.719 -270.081 136.582 -274.351 140.47" stroke="#D47800" stroke-width="0.345044" stroke-miterlimit="10"/>
<path d="M469.932 148.074C464.899 165.026 450.003 178.873 432.495 178.919C392.221 179.026 369.898 84.172 291.926 77.776C285.595 77.256 279.651 77.5394 273.966 78.4026C224.771 85.8731 220.381 148.594 145.163 168.498C138.965 170.138 132.429 170.888 125.631 170.906C28.2422 171.163 -27.2009 42.2243 -148.092 42.5437C-198.147 42.6759 -217.615 99.1631 -259.517 133.717C-264.413 137.754 -269.383 141.281 -273.85 144.761" stroke="#D47800" stroke-width="0.345044" stroke-miterlimit="10"/>
<path d="M469.446 148.679C464.668 165.989 449.572 180.24 431.425 180.288C388.562 180.401 367.437 81.7677 288.54 75.7694C281.987 75.2706 275.917 75.6504 270.186 76.6565C220.698 85.3425 220.201 152.343 143.778 174.576C137.451 176.417 130.77 177.249 123.833 177.267C24.2692 177.53 -27.5447 42.6402 -148.108 42.9588C-198.937 43.0931 -214.715 106.195 -258.34 138.95C-263.463 142.797 -268.685 145.988 -273.35 149.059" stroke="#D47800" stroke-width="0.345044" stroke-miterlimit="10"/>
<path d="M468.946 149.283C464.422 166.952 449.127 181.606 430.339 181.656C384.886 181.776 364.959 79.3726 285.14 73.7609C278.363 73.2847 272.17 73.7609 266.392 74.9099C216.611 84.8089 220.007 156.102 142.381 180.656C135.923 182.699 129.099 183.609 122.022 183.628C20.2848 183.897 -27.9025 43.0526 -148.137 43.3703C-199.741 43.5067 -211.838 113.214 -257.176 144.181C-262.527 147.836 -267.999 150.693 -272.862 153.354" stroke="#D47800" stroke-width="0.345044" stroke-miterlimit="10"/>
<path d="M468.463 149.888C464.192 167.915 448.698 182.975 429.271 183.026C381.229 183.153 362.499 76.9864 281.757 71.7517C274.755 71.298 268.437 71.8693 262.614 73.1612C212.539 84.2706 219.833 159.868 140.998 186.738C134.411 188.983 127.443 189.972 120.226 189.991C16.3134 190.265 -28.2459 43.4637 -148.152 43.7805C-200.529 43.9189 -208.956 120.225 -255.997 149.413C-261.577 152.875 -267.3 155.398 -272.36 157.651" stroke="#D47800" stroke-width="0.345044" stroke-miterlimit="10"/>
<path d="M467.971 150.489C463.954 168.875 448.26 184.34 428.194 184.393C377.562 184.527 360.027 74.6054 278.364 69.7394C271.139 69.3083 264.697 69.9746 258.826 71.4108C208.458 83.7295 219.65 163.642 139.607 192.818C132.892 195.265 125.779 196.334 118.422 196.354C12.3353 196.634 -28.5974 43.8761 -148.175 44.1921C-201.327 44.3326 -206.088 127.228 -254.826 154.646C-260.636 157.915 -266.608 160.106 -271.865 161.948" stroke="#D47800" stroke-width="0.345044" stroke-miterlimit="10"/>
<path d="M467.483 151.093C463.721 169.839 447.827 185.707 427.12 185.762C373.899 185.903 357.561 72.2364 274.974 67.7296C267.526 67.3237 260.959 68.0824 255.044 69.663C204.382 83.1867 219.475 167.424 138.22 198.899C131.376 201.552 124.118 202.697 116.622 202.716C8.35991 203.003 -28.9448 44.2871 -148.194 44.6023C-202.12 44.7448 -203.22 134.22 -253.652 159.878C-259.692 162.951 -265.912 164.813 -271.368 166.246" stroke="#D47800" stroke-width="0.345044" stroke-miterlimit="10"/>
<path d="M467.003 151.69C463.495 170.794 447.402 187.067 426.056 187.123C370.244 187.271 355.102 69.8662 271.595 65.7118C263.922 65.3298 257.232 66.1822 251.27 67.9057C200.314 82.6346 219.311 171.204 136.843 204.973C129.868 207.829 122.467 209.051 114.831 209.072C4.3936 209.363 -29.2832 44.6903 -148.206 45.0046C-202.904 45.1492 -200.349 141.193 -252.471 165.102C-258.742 167.98 -265.21 169.511 -270.863 170.535" stroke="#D47800" stroke-width="0.345044" stroke-miterlimit="10"/>
<path d="M466.515 152.301C463.26 171.762 446.969 188.441 424.982 188.5C366.582 188.654 352.635 67.5182 268.205 63.7079C260.309 63.3513 253.495 64.296 247.487 66.1638C196.235 82.0952 219.14 175.004 135.455 211.061C128.352 214.122 120.805 215.422 113.03 215.442C0.418211 215.74 -29.6319 45.1105 -148.226 45.4239C-203.699 45.5705 -197.49 148.174 -251.297 170.345C-257.8 173.024 -264.515 174.228 -270.367 174.842" stroke="#D47800" stroke-width="0.345044" stroke-miterlimit="10"/>
<path d="M466.027 152.904C463.026 172.726 446.536 189.808 423.91 189.868C362.919 190.029 350.169 65.1677 264.818 61.6975C256.699 61.3675 249.759 62.4018 243.705 64.4139C192.157 81.5451 218.973 178.802 134.068 217.143C126.836 220.409 119.145 221.784 111.229 221.805C-3.55718 222.109 -29.9794 45.5215 -148.245 45.8341C-204.492 45.9827 -194.631 155.136 -250.123 175.577C-256.856 178.058 -263.82 178.934 -269.869 179.138" stroke="#D47800" stroke-width="0.345044" stroke-miterlimit="10"/>
<path d="M465.54 153.508C462.793 173.688 446.103 191.175 422.837 191.236C359.257 191.404 347.701 62.8239 261.429 59.6869C253.085 59.3835 246.021 60.5088 239.923 62.6653C188.079 80.9962 218.808 182.606 132.682 223.225C125.322 226.696 117.485 228.147 109.43 228.168C-7.53006 228.477 -30.3255 45.9339 -148.263 46.2455C-205.283 46.3962 -191.772 162.092 -248.947 180.81C-255.912 183.09 -263.123 183.642 -269.369 183.437" stroke="#D47800" stroke-width="0.345044" stroke-miterlimit="10"/>
<path d="M465.052 154.11C462.559 174.648 445.669 192.541 421.765 192.604C355.594 192.779 345.235 60.484 258.041 57.6761C249.473 57.4008 242.284 58.6143 236.141 60.9151C184 80.4432 218.646 186.412 131.296 229.306C123.807 232.983 115.825 234.509 107.63 234.531C-11.5055 234.846 -30.6729 46.3448 -148.282 46.6557C-206.076 46.8084 -188.913 169.037 -247.772 186.043C-254.969 188.121 -262.427 188.347 -268.871 187.734" stroke="#D47800" stroke-width="0.345044" stroke-miterlimit="10"/>
<path d="M464.56 154.704C462.321 175.602 445.232 193.898 420.687 193.963C351.928 194.145 342.763 58.1417 254.648 55.6561C245.856 55.4075 238.544 56.7105 232.353 59.1571C179.914 79.8808 218.482 190.214 129.905 235.379C122.288 239.262 114.161 240.864 105.826 240.886C-15.4849 241.207 -31.0243 46.748 -148.305 47.058C-206.874 47.2128 -186.057 175.966 -246.603 191.267C-254.03 193.144 -261.736 193.045 -268.378 192.022" stroke="#D47800" stroke-width="0.345044" stroke-miterlimit="10"/>
<path d="M464.064 155.315C462.08 176.571 444.792 195.272 419.607 195.338C348.258 195.527 340.29 55.8189 251.252 53.6529C242.237 53.4337 234.8 54.8236 228.563 57.4145C175.826 79.3326 218.317 194.035 128.51 241.468C120.766 245.558 112.492 247.234 104.018 247.257C-19.4668 247.583 -31.3783 47.1682 -148.332 47.4773C-207.674 47.6341 -183.201 182.906 -245.436 196.508C-253.094 198.182 -261.048 197.761 -267.888 196.327" stroke="#D47800" stroke-width="0.345044" stroke-miterlimit="10"/>
<path d="M463.584 155.917C461.853 177.532 444.367 196.638 418.542 196.706C344.603 196.901 337.83 53.4937 247.871 51.6417C238.631 51.4519 231.064 52.915 224.788 55.6653C171.709 78.6668 218.171 197.852 127.131 247.55C119.259 251.846 110.84 253.597 102.226 253.62C-23.4345 253.952 -31.718 47.5792 -148.343 47.8874C-208.459 48.0463 -180.33 189.829 -244.254 201.741C-252.143 203.21 -260.344 202.467 -267.381 200.624" stroke="#D47800" stroke-width="0.345044" stroke-miterlimit="10"/>
<path d="M463.097 156.52C461.62 178.493 443.934 198.003 417.469 198.073C340.94 198.275 335.365 51.1711 244.483 49.6305C235.021 49.4701 227.328 51.0214 221.007 53.9147C167.631 78.1202 218.021 201.67 125.746 253.631C117.747 258.135 109.181 259.959 100.427 259.983C-27.4075 260.32 -32.0642 47.9901 -148.361 48.2975C-209.251 48.4584 -177.462 196.747 -243.078 206.974C-251.198 208.24 -259.647 207.174 -266.882 204.923" stroke="#D47800" stroke-width="0.345044" stroke-miterlimit="10"/>
<path d="M462.613 157.12C461.391 179.451 443.505 199.366 416.4 199.438C337.282 199.647 332.903 48.8497 241.098 47.6163C231.411 47.4867 223.594 49.1249 217.227 52.1626C163.554 77.5735 217.874 205.49 124.361 259.711C116.235 264.423 107.523 266.322 98.6306 266.345C-31.3791 266.689 -32.4078 48.4024 -148.376 48.7089C-210.04 48.8719 -174.589 203.662 -241.9 212.208C-250.249 213.268 -258.948 211.882 -266.381 209.22" stroke="#D47800" stroke-width="0.345044" stroke-miterlimit="10"/>
<path d="M462.129 157.724C461.161 180.414 443.076 200.732 415.332 200.806C333.623 201.022 330.442 46.535 237.714 45.6047C227.803 45.5046 219.861 47.231 213.449 50.4116C159.478 77.0269 217.83 209.505 122.98 265.793C114.736 270.729 105.867 272.684 96.8353 272.708C-35.3485 273.058 -32.7504 48.8119 -148.39 49.1175C-210.828 49.2826 -171.711 210.57 -240.72 217.44C-249.299 218.293 -258.248 216.586 -265.878 213.516" stroke="#D47800" stroke-width="0.345044" stroke-miterlimit="10"/>
<path d="M461.633 158.323C460.918 181.372 442.635 202.096 414.25 202.171C329.952 202.394 327.967 44.4139 234.317 43.5904C224.182 43.5431 216.116 45.333 209.657 48.6594C155.389 76.4789 217.654 213.284 121.583 271.874C113.211 277.014 104.198 279.047 95.0259 279.071C-39.3333 279.426 -33.1072 49.2228 -148.419 49.5276C-211.631 49.6947 -168.845 217.475 -239.556 222.673C-248.365 223.32 -257.563 221.294 -265.391 217.813" stroke="#D47800" stroke-width="0.345044" stroke-miterlimit="10"/>
<path d="M461.145 158.925C460.684 182.332 442.201 203.461 413.177 203.537C326.288 203.767 325.503 42.0416 230.927 41.5775C220.57 41.5554 212.378 43.4378 205.875 46.9072C151.31 75.9323 217.489 217.064 120.198 277.954C111.696 283.298 102.539 285.41 93.2267 285.434C-43.3078 285.795 -33.4536 49.6325 -148.437 49.9365C-212.422 50.1056 -165.971 224.223 -238.381 227.905C-247.419 228.326 -256.866 226 -264.891 222.109" stroke="#D47800" stroke-width="0.345044" stroke-miterlimit="10"/>
<path d="M460.658 159.525C460.451 183.292 441.768 204.824 412.105 204.902C322.627 205.139 323.04 39.6677 227.539 39.5632C216.958 39.5664 208.642 41.5411 202.093 45.1549C147.229 75.3843 217.323 220.844 118.811 284.036C110.181 289.583 100.877 291.772 91.4263 291.797C-47.2823 292.164 -33.8014 50.0423 -148.456 50.3453C-213.216 50.5165 -163.085 231.197 -237.207 233.137C-246.474 233.36 -256.17 230.705 -264.394 226.404" stroke="#D47800" stroke-width="0.345044" stroke-miterlimit="10"/>
<path d="M460.174 160.125C460.221 184.25 441.339 206.188 411.035 206.268C318.967 206.512 320.579 37.2953 224.154 37.5502C122.973 37.8177 229.085 216.793 117.428 290.117C108.669 295.868 99.2206 298.135 89.6298 298.16C-51.2543 298.532 -34.1452 50.4535 -148.472 50.7557C-214.006 50.9289 -160.194 238.17 -236.028 238.37C-245.524 238.395 -255.472 235.413 -263.893 230.703" stroke="#D47800" stroke-width="0.345044" stroke-miterlimit="10"/>
</g>
</g>
<rect x="0.5" y="0.5" width="249.695" height="163" rx="11.5" stroke="#FEDBB0"/>
<defs>
<clipPath id="clip0_593_1286">
<rect width="250.695" height="164" rx="12" fill="white"/>
</clipPath>
</defs>
</svg>
