<svg width="170" height="41" viewBox="0 0 170 41" fill="none" xmlns="http://www.w3.org/2000/svg">
<circle cx="21.2651" cy="20.2222" r="19.2769" fill="#FB8C00"/>
<path d="M17.8858 37.3198V40.4995C20.1115 41.2945 21.7279 39.1084 22.2578 37.916C22.3241 33.6102 22.536 24.0844 22.854 20.4278C25.0401 15.2608 28.4185 12.2798 31.002 10.0938C24.8016 12.0016 20.4692 17.3805 19.0781 19.8315C18.3495 20.1628 16.5741 20.7457 15.3023 20.4278C7.75049 15.2608 2.38477 16.2544 0 16.2544C9.2211 18.6392 12.5863 22.945 13.1162 24.7998C13.2487 26.3234 13.4342 29.8078 13.1162 31.5567C12.7188 33.7427 11.3276 36.3262 9.93653 38.1148C10.0955 40.8175 12.3875 41.0957 13.5137 40.897C14.2424 39.9033 15.8984 37.7173 16.6934 36.9224C17.4883 36.1275 17.8195 36.8561 17.8858 37.3198Z" fill="#FFFEFE"/>
<path d="M17.8785 21.5976C17.052 21.8211 16.5429 21.0413 16.3917 20.6234L18.6322 20.2851C18.7253 20.6295 18.7049 21.3741 17.8785 21.5976Z" fill="#FB8C00"/>
<path d="M16.0977 29.7637C16.8926 29.4457 17.2238 24.9941 17.29 22.8081C17.4888 22.6094 18.085 22.6094 18.6812 22.6094C19.1581 22.6094 20.3372 27.7764 20.8672 30.3599L18.4824 33.1421C17.9525 32.4134 16.7336 30.7176 16.0977 29.7637Z" fill="#FB8C00"/>
<ellipse cx="16.0952" cy="14.6646" rx="4.17334" ry="4.5708" fill="#FFFEFE"/>
<g clip-path="url(#clip0_593_666)">
<path d="M31.7949 14.0684H31.7989H31.7949Z" fill="#FFFEFE"/>
<path d="M33.3848 11.6836V10.8887C33.3848 10.6778 33.301 10.4757 33.1519 10.3266C33.0029 10.1775 32.8007 10.0938 32.5898 10.0938H31C30.7892 10.0938 30.587 10.1775 30.4379 10.3266C30.2888 10.4757 30.2051 10.6778 30.2051 10.8887V11.6836" fill="#FFFEFE"/>
<path d="M35.7695 14.4658C34.5902 15.2444 33.2081 15.6595 31.7949 15.6595C30.3817 15.6595 28.9997 15.2444 27.8203 14.4658" fill="#FFFEFE"/>
<path d="M34.9746 11.6836H28.6152C28.1762 11.6836 27.8203 12.0395 27.8203 12.4785V16.4531C27.8203 16.8922 28.1762 17.2481 28.6152 17.2481H34.9746C35.4136 17.2481 35.7695 16.8922 35.7695 16.4531V12.4785C35.7695 12.0395 35.4136 11.6836 34.9746 11.6836Z" fill="#FFFEFE"/>
<path d="M31.7949 14.0684H31.7989M33.3848 11.6836V10.8887C33.3848 10.6778 33.301 10.4757 33.1519 10.3266C33.0029 10.1775 32.8007 10.0938 32.5898 10.0938H31C30.7892 10.0938 30.587 10.1775 30.4379 10.3266C30.2888 10.4757 30.2051 10.6778 30.2051 10.8887V11.6836M35.7695 14.4658C34.5902 15.2444 33.2081 15.6595 31.7949 15.6595C30.3817 15.6595 28.9997 15.2444 27.8203 14.4658M28.6152 11.6836H34.9746C35.4136 11.6836 35.7695 12.0395 35.7695 12.4785V16.4531C35.7695 16.8922 35.4136 17.2481 34.9746 17.2481H28.6152C28.1762 17.2481 27.8203 16.8922 27.8203 16.4531V12.4785C27.8203 12.0395 28.1762 11.6836 28.6152 11.6836Z" stroke="#FB8C00" stroke-width="0.612923" stroke-linecap="round" stroke-linejoin="round"/>
</g>
<path d="M50.795 15.4208H46.8952V13.0771H57.1322V15.4208H53.2324V26.4453H50.795V15.4208ZM56.3081 21.833C56.3081 18.9456 58.1831 16.902 60.8454 16.902C63.5266 16.902 65.3452 18.9831 65.3452 22.0393V22.6955H58.5955C58.8018 23.8579 59.6642 24.5516 60.9579 24.5516C61.7829 24.5516 62.2891 24.3267 62.8516 23.7079L64.7078 24.9079C63.7328 26.1453 62.5141 26.7078 60.9204 26.7078C58.2206 26.7078 56.3081 24.6829 56.3081 21.833ZM58.6893 20.7831H63.0203C62.8141 19.6956 62.0641 19.0019 60.8829 19.0019C59.7017 19.0019 58.8955 19.7331 58.6893 20.7831ZM66.2049 21.833C66.2049 19.0581 68.3611 16.902 71.1547 16.902C72.3734 16.902 73.2734 17.2207 74.3421 17.9894L73.4421 19.9018C72.4109 19.2081 72.1484 19.0581 71.136 19.0581C69.6735 19.0581 68.5298 20.2581 68.5298 21.8143C68.5298 23.3704 69.6173 24.5329 71.1172 24.5329C72.0922 24.5329 72.6359 24.2892 73.6484 23.5204L74.3796 25.5828C73.1046 26.4266 72.2984 26.7078 71.1547 26.7078C68.3611 26.7078 66.2049 24.5704 66.2049 21.833ZM75.6885 13.0771H77.9947V17.8582C78.6696 17.202 79.6821 16.8832 80.5258 16.8832C82.682 16.8832 83.8444 18.2519 83.8444 20.7456V26.4453H81.5758V21.008C81.5758 19.4519 80.9383 19.0394 80.1883 19.0394C78.9696 19.0394 77.9947 19.7893 77.9947 21.7955V26.4453H75.6885V13.0771ZM85.4937 17.1082H87.7624V17.8582C88.4374 17.202 89.4498 16.8832 90.2935 16.8832C92.4497 16.8832 93.6122 18.2519 93.6122 20.7456V26.4453H91.3435V21.008C91.3435 19.4519 90.706 19.0394 89.9561 19.0394C88.7374 19.0394 87.7624 19.7893 87.7624 21.7955V26.4453H85.4937V17.1082ZM94.9249 21.7205C94.9249 19.0956 97.156 16.902 99.8747 16.902C102.612 16.902 104.806 19.0581 104.806 21.8143C104.806 24.5704 102.65 26.7078 99.8372 26.7078C97.081 26.7078 94.9249 24.5329 94.9249 21.7205ZM97.2685 21.758C97.2685 23.4079 98.3185 24.5516 99.8372 24.5516C101.375 24.5516 102.462 23.4267 102.462 21.8143C102.462 20.2206 101.375 19.0581 99.8559 19.0581C98.3747 19.0581 97.2685 20.2206 97.2685 21.758ZM108.107 15.4208H104.207V13.0771H114.444V15.4208H110.544V26.4453H108.107V15.4208ZM119.384 19.5081C118.559 19.1519 118.465 19.1144 118.109 19.1144C117.152 19.1144 116.684 19.7893 116.684 21.1955V26.4453H114.415V17.0895H116.684V17.8582C117.003 17.2395 117.865 16.8832 118.54 16.8832C119.177 16.8832 119.852 17.1082 120.49 17.5207L119.384 19.5081ZM122.548 15.627C121.705 15.627 121.011 14.9708 121.011 14.1458C121.011 13.3209 121.705 12.6272 122.511 12.6272C123.373 12.6272 124.048 13.3021 124.048 14.1458C124.048 14.9521 123.355 15.627 122.548 15.627ZM121.423 17.1082H123.711V26.4453H121.423V17.1082ZM125.25 22.733V17.1082H127.519V22.5455C127.519 23.7829 127.912 24.5516 129.3 24.5516C130.762 24.5516 131.1 23.7454 131.1 22.5455V17.1082H133.368V22.733C133.368 25.3954 131.981 26.7078 129.3 26.7078C126.6 26.7078 125.25 25.3391 125.25 22.733ZM134.786 17.1082H137.073V17.8582C137.486 17.3332 138.629 16.8832 139.473 16.8832C140.636 16.8832 141.386 17.5769 141.629 18.2707C142.192 17.5769 143.373 16.8832 144.592 16.8832C146.673 16.8832 147.798 18.2144 147.798 20.6143V26.4453H145.492V20.8393C145.492 19.4894 145.21 19.0394 144.367 19.0394C143.073 19.0394 142.454 19.7144 142.454 21.308V26.4453H140.186V20.9705C140.186 19.6206 139.811 19.0394 139.023 19.0394C137.692 19.0394 137.073 19.7706 137.073 21.383V26.4453H134.786V17.1082ZM149.443 30.4014V17.1082H151.787V17.8957C152.574 17.2207 153.155 16.8832 154.393 16.8832C157.055 16.8832 159.024 19.0394 159.024 21.9455C159.024 24.7954 157.074 26.9328 154.412 26.9328C153.399 26.9328 152.556 26.6516 151.787 26.0703V30.4014H149.443ZM151.674 21.9268C151.674 23.6329 152.687 24.7579 154.187 24.7579C155.668 24.7579 156.68 23.5954 156.68 21.8705C156.68 20.2393 155.63 19.0394 154.168 19.0394C152.706 19.0394 151.674 20.2206 151.674 21.9268ZM160.329 13.0771H162.635V17.8582C163.31 17.202 164.322 16.8832 165.166 16.8832C167.322 16.8832 168.485 18.2519 168.485 20.7456V26.4453H166.216V21.008C166.216 19.4519 165.578 19.0394 164.828 19.0394C163.61 19.0394 162.635 19.7893 162.635 21.7955V26.4453H160.329V13.0771Z" fill="#FB8C00"/>
<defs>
<clipPath id="clip0_593_666">
<rect width="9.53907" height="9.53907" fill="white" transform="translate(27.0273 9.29688)"/>
</clipPath>
</defs>
</svg>
