<svg width="32" height="32" viewBox="0 0 32 32" fill="none" xmlns="http://www.w3.org/2000/svg">
<rect width="32" height="32" rx="16" fill="#265DF5"/>
<path d="M20 14C20 15.7819 18.4706 17.2569 16.5 17.4725V18C16.5 18.1326 16.4473 18.2598 16.3536 18.3536C16.2598 18.4473 16.1326 18.5 16 18.5C15.8674 18.5 15.7402 18.4473 15.6464 18.3536C15.5527 18.2598 15.5 18.1326 15.5 18V17C15.5 16.8674 15.5527 16.7402 15.6464 16.6464C15.7402 16.5527 15.8674 16.5 16 16.5C17.6544 16.5 19 15.3787 19 14C19 12.6213 17.6544 11.5 16 11.5C14.3456 11.5 13 12.6213 13 14C13 14.1326 12.9473 14.2598 12.8536 14.3536C12.7598 14.4473 12.6326 14.5 12.5 14.5C12.3674 14.5 12.2402 14.4473 12.1464 14.3536C12.0527 14.2598 12 14.1326 12 14C12 12.07 13.7944 10.5 16 10.5C18.2056 10.5 20 12.07 20 14ZM16 20C15.8022 20 15.6089 20.0586 15.4444 20.1685C15.28 20.2784 15.1518 20.4346 15.0761 20.6173C15.0004 20.8 14.9806 21.0011 15.0192 21.1951C15.0578 21.3891 15.153 21.5673 15.2929 21.7071C15.4327 21.847 15.6109 21.9422 15.8049 21.9808C15.9989 22.0194 16.2 21.9996 16.3827 21.9239C16.5654 21.8482 16.7216 21.72 16.8315 21.5556C16.9414 21.3911 17 21.1978 17 21C17 20.7348 16.8946 20.4804 16.7071 20.2929C16.5196 20.1054 16.2652 20 16 20Z" fill="white"/>
</svg>
