<svg width="80" height="80" viewBox="0 0 80 80" fill="none" xmlns="http://www.w3.org/2000/svg">
<g clip-path="url(#clip0_1744_5097)">
<path opacity="0.2" d="M50.0023 15C45.0314 14.9998 40.1733 16.4815 36.0487 19.2558C31.924 22.03 28.72 25.9709 26.846 30.575V30.5437C24.4415 29.9299 21.9339 29.8346 19.4897 30.2639C17.0455 30.6933 14.7205 31.6376 12.6692 33.0342C10.6178 34.4308 8.88692 36.2477 7.59141 38.3644C6.29591 40.481 5.4654 42.849 5.155 45.3112C4.84461 47.7733 5.06143 50.2734 5.79108 52.6453C6.52072 55.0173 7.74651 57.2069 9.38707 59.0689C11.0276 60.9309 13.0455 62.4227 15.3066 63.4453C17.5678 64.4679 20.0206 64.9978 22.5023 65H50.0023C56.6327 65 62.9915 62.3661 67.6799 57.6777C72.3683 52.9893 75.0023 46.6304 75.0023 40C75.0023 33.3696 72.3683 27.0107 67.6799 22.3223C62.9915 17.6339 56.6327 15 50.0023 15Z" fill="#265DF5"/>
<path d="M34.996 65H22.496C20.0146 64.9969 17.5623 64.4662 15.3016 63.443C13.041 62.4199 11.0239 60.9276 9.38397 59.0654C7.74408 57.2031 6.51897 55.0134 5.78993 52.6416C5.06089 50.2697 4.84459 47.7699 5.15539 45.3081C5.46619 42.8462 6.29698 40.4786 7.59263 38.3624C8.88828 36.2461 10.6192 34.4296 12.6704 33.0334C14.7217 31.6371 17.0465 30.693 19.4904 30.2638C21.9344 29.8346 24.4417 29.93 26.846 30.5437" stroke="#333333" stroke-linecap="round" stroke-linejoin="round" stroke-dasharray="3 3"/>
<path d="M37.5 57.375L47.5 47.375L57.5 57.375" stroke="#265DF5" stroke-width="2.5" stroke-linecap="round" stroke-linejoin="round"/>
<path d="M47.5 72.375V47.375" stroke="#265DF5" stroke-width="2.5" stroke-linecap="round" stroke-linejoin="round"/>
<path d="M25 39.9941C25.0011 35.4871 26.2205 31.0642 28.5292 27.1935C30.838 23.3228 34.1502 20.1481 38.1154 18.0056C42.0805 15.863 46.5511 14.8322 51.0541 15.0222C55.5571 15.2123 59.925 16.6161 63.6955 19.0851C67.4661 21.5541 70.499 24.9965 72.4734 29.0481C74.4478 33.0996 75.2903 37.6095 74.9116 42.1005C74.5329 46.5916 72.9472 50.8968 70.3222 54.5605C67.6973 58.2241 64.1307 61.1101 60 62.9129" stroke="#333333" stroke-linecap="round" stroke-linejoin="round" stroke-dasharray="3 3"/>
</g>
<defs>
<clipPath id="clip0_1744_5097">
<rect width="80" height="80" fill="white"/>
</clipPath>
</defs>
</svg>
