<svg width="80" height="81" viewBox="0 0 80 81" fill="none" xmlns="http://www.w3.org/2000/svg">
<rect x="4" y="28.6406" width="46.9991" height="47" rx="4.60633" stroke="#333333" stroke-linejoin="round" stroke-dasharray="4.09 4.09"/>
<rect x="27" y="4" width="47.9991" height="48" rx="7.14292" fill="#BCCDFC"/>
<path d="M63.6156 28.9281C63.8617 28.6819 64 28.3481 64 28C64 27.6519 63.8617 27.3181 63.6156 27.0719C63.3694 26.8258 63.0356 26.6875 62.6875 26.6875H52.3125V16.3125C52.3125 15.9644 52.1742 15.6306 51.9281 15.3844C51.6819 15.1383 51.3481 15 51 15C50.6519 15 50.3181 15.1383 50.0719 15.3844C49.8258 15.6306 49.6875 15.9644 49.6875 16.3125V26.6875H39.3125C38.9644 26.6875 38.6306 26.8258 38.3844 27.0719C38.1383 27.3181 38 27.6519 38 28C38 28.3481 38.1383 28.6819 38.3844 28.9281C38.6306 29.1742 38.9644 29.3125 39.3125 29.3125H49.6875V39.6875C49.6875 40.0356 49.8258 40.3694 50.0719 40.6156C50.3181 40.8617 50.6519 41 51 41C51.3481 41 51.6819 40.8617 51.9281 40.6156C52.1742 40.3694 52.3125 40.0356 52.3125 39.6875V29.3125H62.6875C63.0356 29.3125 63.3694 29.1742 63.6156 28.9281Z" fill="#265DF5" stroke="#265DF5" stroke-width="0.5"/>
</svg>
