<svg width="252" height="164" viewBox="0 0 252 164" fill="none" xmlns="http://www.w3.org/2000/svg">
<g clip-path="url(#clip0_593_1287)">
<rect x="0.69519" width="250.695" height="164" rx="12" fill="#E9EFFE"/>
<g opacity="0.2">
<path d="M473.863 144.469C467.307 159.272 453.605 170.694 439.935 170.73C413.494 170.8 381.544 88.6765 297.662 88.8981C246.456 89.0334 218.173 132.548 137.431 132.761C53.0889 132.984 -24.1182 39.7553 -146.98 40.0799C-197.563 40.2135 -243.745 60.9311 -275.84 119" stroke="#4475F1" stroke-width="0.345044" stroke-miterlimit="10"/>
<path d="M473.369 145.074C467.067 160.235 453.166 172.061 438.857 172.099C411.532 172.171 383.175 96.5636 309.865 87.8319C304.65 87.2308 299.331 86.9937 293.874 87.1522C246.149 88.4806 222.302 130.14 153.091 138.12C147.544 138.777 141.725 139.105 135.625 139.122C49.1094 139.35 -24.471 40.1698 -147.004 40.4935C-193.19 40.6155 -231.288 63.9582 -264.397 107.576C-268.18 112.56 -271.869 117.769 -275.348 123.297" stroke="#4475F1" stroke-width="0.345044" stroke-miterlimit="10"/>
<path d="M472.875 145.671C466.827 161.191 452.727 173.421 437.778 173.46C407.863 173.539 380.729 93.9403 306.47 85.8177C301.034 85.2226 295.587 85.097 290.085 85.3998C242.063 87.9327 222.106 133.719 151.698 144.192C146.02 145.036 140.058 145.458 133.818 145.475C45.1275 145.709 -24.825 40.5778 -147.03 40.9007C-193.99 41.0248 -228.335 71.0007 -263.229 112.801C-267.232 117.596 -271.179 122.468 -274.856 127.586" stroke="#4475F1" stroke-width="0.345044" stroke-miterlimit="10"/>
<path d="M472.397 146.275C466.603 162.153 452.303 174.788 436.716 174.829C404.212 174.915 378.282 91.4785 303.093 83.8112C297.433 83.2346 291.862 83.2082 286.314 83.6538C237.996 87.3898 221.934 137.424 150.324 150.272C144.516 151.314 138.411 151.82 132.032 151.837C41.1675 152.077 -25.1583 40.9937 -147.034 41.3157C-194.768 41.4418 -225.374 78.0498 -262.04 118.034C-266.264 122.64 -270.47 127.175 -274.344 131.883" stroke="#4475F1" stroke-width="0.345044" stroke-miterlimit="10"/>
<path d="M471.904 146.88C466.364 163.116 451.864 176.155 435.636 176.198C400.542 176.29 375.816 89.0346 299.698 81.8048C293.815 81.2452 288.119 81.3179 282.525 81.9091C233.908 86.8484 221.745 141.141 148.93 156.352C142.993 157.592 136.743 158.181 130.225 158.198C37.1854 158.444 -25.5124 41.4095 -147.06 41.7307C-195.568 41.8589 -222.448 85.099 -260.872 123.267C-265.319 127.684 -269.781 131.882 -273.853 136.181" stroke="#4475F1" stroke-width="0.345044" stroke-miterlimit="10"/>
<path d="M471.418 147.478C466.131 164.072 451.433 177.514 434.566 177.558C396.883 177.658 373.358 86.5964 296.312 79.7904C290.206 79.2506 284.385 79.4348 278.745 80.1552C229.843 86.4088 221.563 144.862 147.547 162.424C141.48 163.863 135.086 164.534 128.429 164.551C33.2149 164.803 -25.8549 41.8162 -147.075 42.1365C-196.357 42.2667 -219.524 92.1324 -259.693 128.492C-264.364 132.719 -269.081 136.582 -273.351 140.47" stroke="#4475F1" stroke-width="0.345044" stroke-miterlimit="10"/>
<path d="M470.932 148.074C465.899 165.026 451.002 178.873 433.495 178.919C393.221 179.026 370.898 84.172 292.925 77.776C286.595 77.256 280.651 77.5394 274.966 78.4026C225.77 85.8731 221.381 148.594 146.162 168.498C139.965 170.138 133.429 170.888 126.631 170.906C29.2421 171.163 -26.2011 42.2243 -147.092 42.5437C-197.147 42.6759 -216.615 99.1631 -258.517 133.717C-263.414 137.754 -268.383 141.281 -272.85 144.761" stroke="#4475F1" stroke-width="0.345044" stroke-miterlimit="10"/>
<path d="M470.446 148.679C465.667 165.989 450.571 180.24 432.424 180.288C389.562 180.401 368.437 81.7677 289.54 75.7694C282.987 75.2706 276.917 75.6504 271.186 76.6565C221.697 85.3425 221.2 152.343 144.778 174.576C138.451 176.417 131.769 177.249 124.833 177.267C25.269 177.53 -26.5449 42.6402 -147.108 42.9588C-197.938 43.0931 -213.715 106.195 -257.34 138.95C-262.463 142.797 -267.685 145.988 -272.35 149.059" stroke="#4475F1" stroke-width="0.345044" stroke-miterlimit="10"/>
<path d="M469.946 149.283C465.422 166.952 450.127 181.606 431.339 181.656C385.886 181.776 365.959 79.3726 286.14 73.7609C279.363 73.2847 273.17 73.7609 267.392 74.9099C217.61 84.8089 221.007 156.102 143.381 180.656C136.923 182.699 130.099 183.609 123.022 183.628C21.2846 183.897 -26.9027 43.0526 -147.138 43.3703C-198.741 43.5067 -210.838 113.214 -256.176 144.181C-261.527 147.836 -266.999 150.693 -271.862 153.354" stroke="#4475F1" stroke-width="0.345044" stroke-miterlimit="10"/>
<path d="M469.462 149.888C465.192 167.915 449.698 182.975 430.271 183.026C382.229 183.153 363.499 76.9864 282.756 71.7517C275.755 71.298 269.437 71.8693 263.614 73.1612C213.539 84.2706 220.832 159.868 141.998 186.738C135.411 188.983 128.443 189.972 121.226 189.991C17.3132 190.265 -27.2461 43.4637 -147.153 43.7805C-199.529 43.9189 -207.956 120.225 -254.997 149.413C-260.577 152.875 -266.3 155.398 -271.361 157.651" stroke="#4475F1" stroke-width="0.345044" stroke-miterlimit="10"/>
<path d="M468.971 150.489C464.954 168.875 449.26 184.34 429.193 184.393C378.561 184.527 361.027 74.6054 279.363 69.7394C272.139 69.3083 265.697 69.9746 259.826 71.4108C209.457 83.7295 220.65 163.642 140.607 192.818C133.892 195.265 126.779 196.334 119.422 196.354C13.3351 196.634 -27.5976 43.8761 -147.176 44.1921C-200.327 44.3326 -205.088 127.228 -253.827 154.646C-259.636 157.915 -265.608 160.106 -270.866 161.948" stroke="#4475F1" stroke-width="0.345044" stroke-miterlimit="10"/>
<path d="M468.483 151.093C464.721 169.839 448.827 185.707 428.12 185.762C374.899 185.903 358.561 72.2364 275.974 67.7296C268.526 67.3237 261.959 68.0824 256.044 69.663C205.382 83.1867 220.475 167.424 139.22 198.899C132.375 201.552 125.118 202.697 117.622 202.716C9.35973 203.003 -27.945 44.2871 -147.195 44.6023C-201.12 44.7448 -202.22 134.22 -252.652 159.878C-258.693 162.951 -264.912 164.813 -270.368 166.246" stroke="#4475F1" stroke-width="0.345044" stroke-miterlimit="10"/>
<path d="M468.003 151.69C464.495 170.794 448.402 187.067 427.056 187.123C371.244 187.271 356.102 69.8662 272.594 65.7118C264.922 65.3298 258.232 66.1822 252.27 67.9057C201.313 82.6346 220.311 171.204 137.843 204.973C130.868 207.829 123.467 209.051 115.831 209.072C5.39341 209.363 -28.2834 44.6903 -147.206 45.0046C-201.904 45.1492 -199.349 141.193 -251.471 165.102C-257.742 167.98 -264.21 169.511 -269.863 170.535" stroke="#4475F1" stroke-width="0.345044" stroke-miterlimit="10"/>
<path d="M467.515 152.301C464.26 171.762 447.969 188.441 425.982 188.5C367.582 188.654 353.635 67.5182 269.205 63.7079C261.309 63.3513 254.495 64.296 248.487 66.1638C197.234 82.0952 220.14 175.004 136.455 211.061C129.352 214.122 121.805 215.422 114.029 215.442C1.41803 215.74 -28.6321 45.1105 -147.226 45.4239C-202.699 45.5705 -196.49 148.174 -250.298 170.345C-256.8 173.024 -263.515 174.228 -269.367 174.842" stroke="#4475F1" stroke-width="0.345044" stroke-miterlimit="10"/>
<path d="M467.027 152.904C464.026 172.726 447.536 189.808 424.91 189.868C363.919 190.029 351.168 65.1677 265.817 61.6975C257.698 61.3675 250.759 62.4018 244.705 64.4139C193.157 81.5451 219.973 178.802 135.068 217.143C127.836 220.409 120.145 221.784 112.229 221.805C-2.55736 222.109 -28.9796 45.5215 -147.245 45.8341C-203.492 45.9827 -193.631 155.136 -249.123 175.577C-255.856 178.058 -262.82 178.934 -268.869 179.138" stroke="#4475F1" stroke-width="0.345044" stroke-miterlimit="10"/>
<path d="M466.539 153.508C463.792 173.688 447.103 191.175 423.837 191.236C360.257 191.404 348.701 62.8239 262.428 59.6869C254.085 59.3835 247.021 60.5088 240.922 62.6653C189.079 80.9962 219.808 182.606 133.682 223.225C126.322 226.696 118.485 228.147 110.43 228.168C-6.53024 228.477 -29.3257 45.9339 -147.263 46.2455C-204.283 46.3962 -190.772 162.092 -247.947 180.81C-254.912 183.09 -262.123 183.642 -268.369 183.437" stroke="#4475F1" stroke-width="0.345044" stroke-miterlimit="10"/>
<path d="M466.052 154.11C463.559 174.648 446.669 192.541 422.764 192.604C356.594 192.779 346.234 60.484 259.041 57.6761C250.473 57.4008 243.284 58.6143 237.14 60.9151C185 80.4432 219.646 186.412 132.295 229.306C124.807 232.983 116.825 234.509 108.63 234.531C-10.5056 234.846 -29.6731 46.3448 -147.282 46.6557C-205.077 46.8084 -187.913 169.037 -246.772 186.043C-253.969 188.121 -261.427 188.347 -267.871 187.734" stroke="#4475F1" stroke-width="0.345044" stroke-miterlimit="10"/>
<path d="M465.56 154.704C463.321 175.602 446.232 193.898 421.687 193.963C352.928 194.145 343.763 58.1417 255.648 55.6561C246.856 55.4075 239.544 56.7105 233.353 59.1571C180.914 79.8808 219.482 190.214 130.905 235.379C123.288 239.262 115.161 240.864 106.826 240.886C-14.4851 241.207 -30.0245 46.748 -147.305 47.058C-205.874 47.2128 -185.057 175.966 -245.603 191.267C-253.03 193.144 -260.736 193.045 -267.378 192.022" stroke="#4475F1" stroke-width="0.345044" stroke-miterlimit="10"/>
<path d="M465.064 155.315C463.08 176.571 445.792 195.272 420.607 195.338C349.257 195.527 341.29 55.8189 252.252 53.6529C243.236 53.4337 235.799 54.8236 229.563 57.4145C176.826 79.3326 219.317 194.035 129.51 241.468C121.766 245.558 113.492 247.234 105.018 247.257C-18.467 247.583 -30.3785 47.1682 -147.332 47.4773C-206.674 47.6341 -182.202 182.906 -244.436 196.508C-252.094 198.182 -260.048 197.761 -266.888 196.327" stroke="#4475F1" stroke-width="0.345044" stroke-miterlimit="10"/>
<path d="M464.584 155.917C462.853 177.532 445.367 196.638 419.541 196.706C345.603 196.901 338.83 53.4937 248.871 51.6417C239.631 51.4519 232.064 52.915 225.787 55.6653C172.708 78.6668 219.17 197.852 128.131 247.55C120.259 251.846 111.84 253.597 103.226 253.62C-22.4347 253.952 -30.7182 47.5792 -147.343 47.8874C-207.459 48.0463 -179.33 189.829 -243.254 201.741C-251.143 203.21 -259.344 202.467 -266.382 200.624" stroke="#4475F1" stroke-width="0.345044" stroke-miterlimit="10"/>
<path d="M464.096 156.52C462.62 178.493 444.934 198.003 418.469 198.073C341.94 198.275 336.365 51.1711 245.483 49.6305C236.02 49.4701 228.328 51.0214 222.007 53.9147C168.631 78.1202 219.021 201.67 126.745 253.631C118.746 258.135 110.181 259.959 101.427 259.983C-26.4077 260.32 -31.0644 47.9901 -147.361 48.2975C-208.252 48.4584 -176.462 196.747 -242.078 206.974C-250.198 208.24 -258.647 207.174 -265.883 204.923" stroke="#4475F1" stroke-width="0.345044" stroke-miterlimit="10"/>
<path d="M463.613 157.12C462.39 179.451 444.505 199.366 417.4 199.438C338.281 199.647 333.903 48.8497 242.098 47.6163C232.411 47.4867 224.594 49.1249 218.227 52.1626C164.554 77.5735 218.874 205.49 125.361 259.711C117.235 264.423 108.523 266.322 99.6304 266.345C-30.3793 266.689 -31.408 48.4024 -147.376 48.7089C-209.04 48.8719 -173.589 203.662 -240.9 212.208C-249.249 213.268 -257.949 211.882 -265.381 209.22" stroke="#4475F1" stroke-width="0.345044" stroke-miterlimit="10"/>
<path d="M463.129 157.724C462.161 180.414 444.076 200.732 416.331 200.806C334.623 201.022 331.442 46.535 238.713 45.6047C228.803 45.5046 220.861 47.231 214.449 50.4116C160.477 77.0269 218.829 209.505 123.979 265.793C115.735 270.729 106.867 272.684 97.8351 272.708C-34.3486 273.058 -31.7506 48.8119 -147.39 49.1175C-209.829 49.2826 -170.711 210.57 -239.72 217.44C-248.3 218.293 -257.248 216.586 -264.878 213.516" stroke="#4475F1" stroke-width="0.345044" stroke-miterlimit="10"/>
<path d="M462.633 158.323C461.918 181.372 443.635 202.096 415.25 202.171C330.952 202.394 328.966 44.4139 235.316 43.5904C225.182 43.5431 217.116 45.333 210.657 48.6594C156.389 76.4789 218.654 213.284 122.583 271.874C114.211 277.014 105.197 279.047 96.0257 279.071C-38.3334 279.426 -32.1074 49.2228 -147.419 49.5276C-210.631 49.6947 -167.845 217.475 -238.557 222.673C-247.365 223.32 -256.563 221.294 -264.391 217.813" stroke="#4475F1" stroke-width="0.345044" stroke-miterlimit="10"/>
<path d="M462.145 158.925C461.684 182.332 443.201 203.461 414.177 203.537C327.288 203.767 326.502 42.0416 231.927 41.5775C221.57 41.5554 213.378 43.4378 206.875 46.9072C152.31 75.9323 218.489 217.064 121.198 277.954C112.696 283.298 103.538 285.41 94.2266 285.434C-42.308 285.795 -32.4538 49.6325 -147.437 49.9365C-211.423 50.1056 -164.971 224.223 -237.381 227.905C-246.419 228.326 -255.866 226 -263.891 222.109" stroke="#4475F1" stroke-width="0.345044" stroke-miterlimit="10"/>
<path d="M461.657 159.525C461.45 183.292 442.768 204.824 413.104 204.902C323.627 205.139 324.04 39.6677 228.539 39.5632C217.957 39.5664 209.641 41.5411 203.093 45.1549C148.229 75.3843 218.323 220.844 119.811 284.036C111.181 289.583 101.877 291.772 92.4261 291.797C-46.2825 292.164 -32.8015 50.0423 -147.456 50.3453C-212.216 50.5165 -162.085 231.197 -236.207 233.137C-245.474 233.36 -255.17 230.705 -263.394 226.404" stroke="#4475F1" stroke-width="0.345044" stroke-miterlimit="10"/>
<path d="M461.174 160.125C461.221 184.25 442.339 206.188 412.035 206.268C319.967 206.512 321.578 37.2953 225.154 37.5502C123.972 37.8177 230.085 216.793 118.427 290.117C109.669 295.868 100.22 298.135 90.6296 298.16C-50.2544 298.532 -33.1453 50.4535 -147.472 50.7557C-213.006 50.9289 -159.194 238.17 -235.029 238.37C-244.524 238.395 -254.472 235.413 -262.893 230.703" stroke="#4475F1" stroke-width="0.345044" stroke-miterlimit="10"/>
</g>
</g>
<rect x="1.19519" y="0.5" width="249.695" height="163" rx="11.5" stroke="#D1DDFD"/>
<defs>
<clipPath id="clip0_593_1287">
<rect x="0.69519" width="250.695" height="164" rx="12" fill="white"/>
</clipPath>
</defs>
</svg>
