<svg width="60" height="60" viewBox="0 0 60 60" fill="none" xmlns="http://www.w3.org/2000/svg">
<circle opacity="0.7" cx="29.9999" cy="30" r="30" fill="white"/>
<g clip-path="url(#clip0_719_743)">
<path d="M37.9999 29C39.1644 28.9991 40.313 29.2698 41.3546 29.7906C42.3961 30.3114 43.3019 31.0679 43.9999 32" stroke="#FB8C00" stroke-width="2" stroke-linecap="round" stroke-linejoin="round"/>
<path d="M15.9999 32C16.6979 31.0679 17.6036 30.3114 18.6452 29.7906C19.6867 29.2698 20.8354 28.9991 21.9999 29" stroke="#FB8C00" stroke-width="2" stroke-linecap="round" stroke-linejoin="round"/>
<path d="M29.9999 37C32.7613 37 34.9999 34.7614 34.9999 32C34.9999 29.2386 32.7613 27 29.9999 27C27.2385 27 24.9999 29.2386 24.9999 32C24.9999 34.7614 27.2385 37 29.9999 37Z" stroke="#FB8C00" stroke-width="2" stroke-linecap="round" stroke-linejoin="round"/>
<path d="M22.9999 41C23.7177 39.7818 24.7411 38.772 25.9687 38.0705C27.1964 37.369 28.5859 37 29.9999 37C31.4138 37 32.8033 37.369 34.031 38.0705C35.2587 38.772 36.282 39.7818 36.9999 41" stroke="#FB8C00" stroke-width="2" stroke-linecap="round" stroke-linejoin="round"/>
<path d="M34.1249 24C34.3119 23.2757 34.6983 22.6184 35.2401 22.1026C35.7819 21.5869 36.4576 21.2334 37.1902 21.0824C37.9228 20.9313 38.6831 20.9888 39.3848 21.2481C40.0864 21.5075 40.7013 21.9584 41.1595 22.5497C41.6178 23.141 41.901 23.8489 41.9771 24.5931C42.0532 25.3372 41.9191 26.0878 41.59 26.7596C41.261 27.4314 40.7501 27.9974 40.1155 28.3935C39.4809 28.7895 38.7479 28.9996 37.9999 29" stroke="#FB8C00" stroke-width="2" stroke-linecap="round" stroke-linejoin="round"/>
<path d="M22.0018 29C21.2537 28.9996 20.5208 28.7895 19.8861 28.3935C19.2515 27.9974 18.7407 27.4314 18.4116 26.7596C18.0825 26.0878 17.9484 25.3372 18.0245 24.5931C18.1006 23.8489 18.3839 23.141 18.8421 22.5497C19.3004 21.9584 19.9152 21.5075 20.6169 21.2481C21.3185 20.9888 22.0788 20.9313 22.8115 21.0824C23.5441 21.2334 24.2197 21.5869 24.7615 22.1026C25.3034 22.6184 25.6898 23.2757 25.8768 24" stroke="#FB8C00" stroke-width="2" stroke-linecap="round" stroke-linejoin="round"/>
</g>
<defs>
<clipPath id="clip0_719_743">
<rect width="32" height="32" fill="white" transform="translate(13.9999 14)"/>
</clipPath>
</defs>
</svg>
