<svg width="195" height="104" viewBox="0 0 195 104" fill="none" xmlns="http://www.w3.org/2000/svg">
<path d="M55.0073 102.797H1V1H194.71V53.6544" fill="white"/>
<path d="M55.0073 102.797H1V1H194.71V53.6544V102.797H55.0073Z" stroke="#252D3B" stroke-width="0.5" stroke-miterlimit="10" stroke-linecap="round"/>
<mask id="mask0_593_691" style="mask-type:luminance" maskUnits="userSpaceOnUse" x="7" y="23" width="188" height="80">
<path d="M194.71 23.8115H7.34717V102.464H194.71V23.8115Z" fill="white"/>
</mask>
<g mask="url(#mask0_593_691)">
<path d="M185.212 44.0264H164.163V103.126H185.212V44.0264Z" fill="#FEDBB0"/>
<path d="M151.299 54.6636H133.759V103.126H151.299V54.6636Z" fill="#FEDBB0"/>
<path d="M177.415 64.9058H157.146V103.124H177.415V64.9058Z" fill="#FEDBB0"/>
<path d="M138.044 66.8779H123.232V103.126H138.044V66.8779Z" fill="#FEDBB0"/>
<path d="M170.399 81.4551H91.6597V103.126H170.399V81.4551Z" fill="#FEDBB0"/>
<path d="M98.2876 90.5181H79.5771V103.126H98.2876V90.5181Z" fill="#FEDBB0"/>
<path d="M116.33 78.8179H100.839V83.7391H116.33V78.8179Z" fill="#FEDBB0"/>
<path d="M148.196 48.6196H136.688V58.0144H148.196V48.6196Z" fill="#FEDBB0"/>
<path d="M178.914 28.0068H164.558V52.6485H178.914V28.0068Z" fill="#FEDBB0"/>
<path d="M143.768 34.5566H140.994V50.2584H143.768V34.5566Z" fill="#FEDBB0"/>
<path d="M194.461 55.291H180.003V103.518H194.461V55.291Z" fill="#FEDBB0"/>
<path d="M82.3268 99.605H55.2065V103.222H82.3268V99.605Z" fill="#FEDBB0"/>
<path d="M74.7936 95.2251H68.9556V101.888H74.7936V95.2251Z" fill="#FEDBB0"/>
</g>
<path d="M134.402 67.0527V75.7554" stroke="#252D3B" stroke-width="0.5" stroke-miterlimit="10" stroke-linecap="round"/>
<path d="M179.34 43.0586V55.2968" stroke="#252D3B" stroke-width="0.5" stroke-miterlimit="10" stroke-linecap="round"/>
<path d="M100.649 80.7676V90.5225" stroke="#252D3B" stroke-width="0.5" stroke-miterlimit="10" stroke-linecap="round"/>
<path d="M44.0016 50.1663C47.215 50.1663 49.8201 47.5612 49.8201 44.3478C49.8201 41.1343 47.215 38.5293 44.0016 38.5293C40.7881 38.5293 38.1831 41.1343 38.1831 44.3478C38.1831 47.5612 40.7881 50.1663 44.0016 50.1663Z" fill="#FEDBB0"/>
</svg>
