<svg width="16" height="16" viewBox="0 0 16 16" fill="none" xmlns="http://www.w3.org/2000/svg">
<path d="M2 4H3.33333H14" stroke="black" stroke-width="1.33333" stroke-linecap="round" stroke-linejoin="round"/>
<path d="M12.6693 4.0026V13.3359C12.6693 13.6896 12.5288 14.0287 12.2787 14.2787C12.0287 14.5288 11.6896 14.6693 11.3359 14.6693H4.66927C4.31565 14.6693 3.97651 14.5288 3.72646 14.2787C3.47641 14.0287 3.33594 13.6896 3.33594 13.3359V4.0026M5.33594 4.0026V2.66927C5.33594 2.31565 5.47641 1.97651 5.72646 1.72646C5.97651 1.47641 6.31565 1.33594 6.66927 1.33594H9.33594C9.68956 1.33594 10.0287 1.47641 10.2787 1.72646C10.5288 1.97651 10.6693 2.31565 10.6693 2.66927V4.0026" stroke="black" stroke-width="1.33333" stroke-linecap="round" stroke-linejoin="round"/>
<path d="M6.66406 7.33594V11.3359" stroke="black" stroke-width="1.33333" stroke-linecap="round" stroke-linejoin="round"/>
<path d="M9.33594 7.33594V11.3359" stroke="black" stroke-width="1.33333" stroke-linecap="round" stroke-linejoin="round"/>
</svg>
